<svg width="52" height="31" viewBox="0 0 52 31" fill="none" xmlns="http://www.w3.org/2000/svg">
<path fill-rule="evenodd" clip-rule="evenodd" d="M14.654 11.2586C14.654 11.8966 14.7232 12.4138 14.8442 12.7931C14.9826 13.1724 15.1556 13.5862 15.3977 14.0345C15.4841 14.1724 15.5187 14.3104 15.5187 14.4311C15.5187 14.6035 15.415 14.7759 15.1901 14.9483L14.1006 15.6725C13.9449 15.7759 13.7893 15.8276 13.6509 15.8276C13.478 15.8276 13.305 15.7414 13.1321 15.5862C12.89 15.3276 12.6824 15.0518 12.5095 14.7759C12.3365 14.4828 12.1636 14.1552 11.9733 13.7587C10.6244 15.3449 8.92949 16.138 6.88872 16.138C5.43597 16.138 4.27723 15.7242 3.4298 14.8966C2.58236 14.069 2.15 12.9655 2.15 11.5862C2.15 10.1207 2.66883 8.93106 3.72381 8.0345C4.77878 7.13795 6.17964 6.68967 7.96099 6.68967C8.54901 6.68967 9.15432 6.7414 9.79422 6.8276C10.4341 6.91381 11.0913 7.05174 11.7831 7.20691V5.94829C11.7831 4.63794 11.5064 3.72415 10.9703 3.18966C10.4168 2.65518 9.48292 2.39656 8.15123 2.39656C7.54592 2.39656 6.92331 2.46552 6.28341 2.6207C5.64351 2.77587 5.0209 2.96552 4.41559 3.2069C4.13888 3.32759 3.93134 3.39656 3.81028 3.43104C3.68922 3.46553 3.60274 3.48277 3.53357 3.48277C3.29144 3.48277 3.17038 3.31035 3.17038 2.94828V2.10345C3.17038 1.82759 3.20497 1.62069 3.29144 1.5C3.37791 1.37931 3.53357 1.25862 3.77569 1.13793C4.381 0.827588 5.10738 0.568967 5.95481 0.36207C6.80225 0.137931 7.70157 0.0344828 8.65277 0.0344828C10.7108 0.0344828 12.2155 0.500001 13.184 1.43104C14.1352 2.36207 14.6194 3.77587 14.6194 5.67243V11.2586H14.654ZM7.63239 13.8793C8.20311 13.8793 8.79113 13.7759 9.41374 13.569C10.0363 13.3621 10.5898 12.9828 11.0567 12.4655C11.3334 12.138 11.541 11.7759 11.6447 11.3621C11.7485 10.9483 11.8177 10.4483 11.8177 9.86209V9.13795C11.3161 9.01726 10.78 8.91382 10.2266 8.84485C9.67316 8.77588 9.13702 8.7414 8.60089 8.7414C7.44215 8.7414 6.59471 8.96554 6.02399 9.43106C5.45327 9.89658 5.17656 10.5518 5.17656 11.4138C5.17656 12.2242 5.38409 12.8276 5.81646 13.2414C6.23153 13.6724 6.83684 13.8793 7.63239 13.8793Z" fill="#5E56E9"/>
<path d="M21.52 15.7414C21.2087 15.7414 21.0011 15.6897 20.8628 15.569C20.7244 15.4656 20.6034 15.2242 20.4996 14.8966L16.4354 1.56897C16.3316 1.22414 16.2797 1 16.2797 0.879313C16.2797 0.60345 16.4181 0.448277 16.6948 0.448277H18.3896C18.7182 0.448277 18.9431 0.500001 19.0641 0.620691C19.2025 0.72414 19.3063 0.96552 19.41 1.29311L22.3155 12.7069L25.0135 1.29311C25.1 0.948278 25.2037 0.72414 25.3421 0.620691C25.4804 0.517243 25.7226 0.448277 26.0339 0.448277H27.4174C27.746 0.448277 27.9709 0.500001 28.1092 0.620691C28.2476 0.72414 28.3686 0.96552 28.4378 1.29311L31.1704 12.8449L34.1623 1.29311C34.2661 0.948278 34.3872 0.72414 34.5082 0.620691C34.6466 0.517243 34.8714 0.448277 35.1827 0.448277H36.7911C37.0678 0.448277 37.2235 0.586208 37.2235 0.879313C37.2235 0.952942 37.2109 1.02657 37.1964 1.11094L37.1889 1.15518C37.1716 1.25862 37.137 1.39656 37.0678 1.58621L32.8998 14.9138C32.7961 15.2587 32.675 15.4828 32.5366 15.5862C32.3983 15.6897 32.1735 15.7587 31.8795 15.7587H30.3921C30.0635 15.7587 29.8387 15.7069 29.7003 15.5862C29.562 15.4656 29.4409 15.2414 29.3717 14.8966L26.6911 3.77587L24.0277 14.8793C23.9412 15.2242 23.8375 15.4483 23.6991 15.569C23.5607 15.6897 23.3186 15.7414 23.0073 15.7414H21.52Z" fill="#5E56E9"/>
<path d="M43.7436 16.2069C42.8442 16.2069 41.9449 16.1035 41.0802 15.8966C40.2155 15.6897 39.541 15.4656 39.0913 15.2069C38.8146 15.0518 38.6244 14.8793 38.5552 14.7242C38.486 14.569 38.4514 14.3966 38.4514 14.2414V13.3621C38.4514 13 38.5898 12.8276 38.8492 12.8276C38.953 12.8276 39.0567 12.8449 39.1605 12.8793C39.2275 12.9016 39.3161 12.9383 39.4171 12.98C39.4725 13.0029 39.5316 13.0273 39.5929 13.0518C40.1809 13.3104 40.8208 13.5173 41.4953 13.6552C42.187 13.7931 42.8615 13.8621 43.5533 13.8621C44.6429 13.8621 45.4903 13.6724 46.0783 13.2931C46.6664 12.9138 46.9777 12.3621 46.9777 11.6552C46.9777 11.1724 46.822 10.7759 46.5107 10.4483C46.1994 10.1207 45.6114 9.82761 44.7639 9.55175L42.2562 8.77588C40.9937 8.37933 40.0598 7.79312 39.4891 7.01726C38.9184 6.25864 38.6244 5.41381 38.6244 4.51725C38.6244 3.79311 38.78 3.15518 39.0913 2.60345C39.4026 2.05173 39.8177 1.56897 40.3365 1.18966C40.8554 0.793105 41.4434 0.500001 42.1352 0.293104C42.827 0.0862071 43.5533 0 44.3143 0C44.6948 0 45.0925 0.0172414 45.473 0.0689657C45.8708 0.12069 46.234 0.189656 46.5972 0.258621C46.9431 0.344828 47.2717 0.431036 47.583 0.534484C47.8943 0.637933 48.1364 0.741381 48.3093 0.84483C48.5515 0.982761 48.7244 1.12069 48.8282 1.27587C48.9319 1.4138 48.9838 1.60345 48.9838 1.84483V2.65518C48.9838 3.01725 48.8455 3.2069 48.5861 3.2069C48.4477 3.2069 48.2229 3.13794 47.9289 3.00001C46.9431 2.55173 45.8362 2.32759 44.6083 2.32759C43.6225 2.32759 42.8442 2.48276 42.3081 2.81035C41.772 3.13794 41.4953 3.63794 41.4953 4.34484C41.4953 4.8276 41.6682 5.24139 42.0141 5.56898C42.36 5.89657 42.9999 6.22415 43.9165 6.51726L46.3723 7.29312C47.6176 7.68967 48.5169 8.2414 49.053 8.9483C49.5891 9.6552 49.8486 10.4655 49.8486 11.3621C49.8486 12.1035 49.6929 12.7759 49.3989 13.3621C49.0876 13.9483 48.6725 14.4656 48.1364 14.8793C47.6003 15.3104 46.9604 15.6207 46.2167 15.8449C45.4384 16.0862 44.6256 16.2069 43.7436 16.2069Z" fill="#5E56E9"/>
<path d="M47.0122 24.5862C41.3223 28.7759 33.0555 31 25.9474 31C15.9857 31 7.00985 27.3276 0.230367 21.2241C-0.305766 20.7414 0.178483 20.0862 0.818383 20.4655C8.15129 24.7069 17.1964 27.2759 26.5527 27.2759C32.8653 27.2759 39.8004 25.9655 46.1821 23.2759C47.1333 22.8448 47.9462 23.8965 47.0122 24.5862Z" fill="#5E56E9"/>
<path d="M42.7234 21.6725C44.5739 21.4484 48.6554 20.9656 49.3818 21.8966C50.1082 22.8104 48.569 26.6552 47.8772 28.3621C47.6696 28.8794 48.1193 29.0863 48.5863 28.6897C51.6301 26.138 52.4256 20.8104 51.803 20.0346C51.1804 19.2759 45.8364 18.6208 42.5851 20.8966C42.0835 21.2587 42.17 21.7415 42.7234 21.6725Z" fill="#5E56E9"/>
</svg>
