<svg width="30" height="30" viewBox="0 0 30 30" fill="none" xmlns="http://www.w3.org/2000/svg">
<path d="M30 28.8387C30 29.4677 29.4677 30 28.8387 30H1.16129C0.532258 30 0 29.4677 0 28.8387V1.16129C0 0.532258 0.532258 0 1.16129 0H28.8387C29.4677 0 30 0.532258 30 1.16129V28.8387Z" fill="#8EA5A4"/>
<path d="M0.967712 4.83871V27.9193C0.967712 28.5484 1.4032 29.0323 1.98384 29.0323H28.0161C28.5967 29.0323 29.0322 28.5484 29.0322 27.9193V4.83871H0.967712Z" fill="#FDFFFF"/>
<path d="M28.0161 29.0323C28.5967 29.0323 29.0322 28.5 29.0322 27.9193V4.83871H0.967712" fill="#E8EFEF"/>
<path d="M29.0322 4.83871H0.967712V6.29032H29.0322V4.83871Z" fill="#DCE5E5"/>
<path d="M23.9032 2.41936C23.9032 3 23.4194 3.3871 22.8387 3.3871H1.93548C1.35483 3.3871 1.45161 3 1.45161 2.41936C1.45161 1.83871 1.35483 1.45161 1.93548 1.45161H22.8387C23.4194 1.45161 23.9032 1.83871 23.9032 2.41936Z" fill="#FDFFFF"/>
<path d="M1.45161 2.46774C1.45161 1.8871 1.35483 1.45161 1.93548 1.45161H22.8387C23.4194 1.45161 23.9032 1.8871 23.9032 2.46774" fill="#E6EFEF"/>
<path opacity="0.4" d="M25.7903 3.04839C26.0843 3.04839 26.3226 2.81009 26.3226 2.51613C26.3226 2.22217 26.0843 1.98387 25.7903 1.98387C25.4964 1.98387 25.2581 2.22217 25.2581 2.51613C25.2581 2.81009 25.4964 3.04839 25.7903 3.04839Z" fill="#B1BCBC"/>
<path d="M25.7903 2.80645C26.0843 2.80645 26.3226 2.56815 26.3226 2.27419C26.3226 1.98024 26.0843 1.74194 25.7903 1.74194C25.4964 1.74194 25.2581 1.98024 25.2581 2.27419C25.2581 2.56815 25.4964 2.80645 25.7903 2.80645Z" fill="white"/>
<path d="M25.4032 1.8871C25.5967 1.69355 25.9838 1.69355 26.1774 1.8871C26.3709 2.08065 26.3709 2.46774 26.1774 2.66129" fill="#E8EFEE"/>
<path opacity="0.4" d="M27.9677 3.04839C28.2617 3.04839 28.5 2.81009 28.5 2.51613C28.5 2.22217 28.2617 1.98387 27.9677 1.98387C27.6738 1.98387 27.4355 2.22217 27.4355 2.51613C27.4355 2.81009 27.6738 3.04839 27.9677 3.04839Z" fill="#B1BCBC"/>
<path d="M27.9677 2.80645C28.2617 2.80645 28.5 2.56815 28.5 2.27419C28.5 1.98024 28.2617 1.74194 27.9677 1.74194C27.6738 1.74194 27.4355 1.98024 27.4355 2.27419C27.4355 2.56815 27.6738 2.80645 27.9677 2.80645Z" fill="white"/>
<path d="M27.5806 1.8871C27.7742 1.69355 28.1613 1.69355 28.3548 1.8871C28.5484 2.08065 28.5484 2.46774 28.3548 2.66129" fill="#E8EFEE"/>
<path d="M6.09683 1.93559L6.04844 1.88721H5.90328C5.85489 1.88721 5.85489 1.88721 5.85489 1.93559L5.75812 2.32269L5.61295 1.93559C5.56457 1.93559 5.56457 1.93559 5.51618 1.93559H5.37102C5.32263 1.93559 5.32263 1.93559 5.32263 1.98398L5.17747 2.41946L5.0807 2.03237C5.0807 1.93559 5.0807 1.93559 5.03231 1.93559H4.88715H4.83876H4.79037H4.64521C4.59683 1.93559 4.59683 1.93559 4.59683 1.98398L4.50005 2.37108L4.35489 1.98398C4.35489 1.93559 4.3065 1.93559 4.25812 1.93559H4.16134C4.11295 1.93559 4.11295 1.93559 4.06457 1.98398L3.96779 2.37108L3.82263 1.98398C3.82263 1.93559 3.82263 1.93559 3.77424 1.93559H3.62908H3.5807C3.5807 1.93559 3.5807 1.93559 3.53231 1.93559H3.38715C3.38715 1.93559 3.33876 1.93559 3.33876 1.98398L3.24199 2.37108L3.09683 1.98398C3.09683 1.93559 3.04844 1.93559 3.00005 1.93559H2.90328C2.85489 1.93559 2.85489 1.93559 2.85489 1.98398L2.70973 2.37108L2.61295 1.98398C2.56457 1.93559 2.56457 1.93559 2.51618 1.93559H2.37102C2.37102 1.93559 2.32263 1.93559 2.32263 1.98398C2.32263 2.03237 2.32263 2.03237 2.32263 2.03237L2.56457 2.85495C2.56457 2.90334 2.61295 2.90334 2.61295 2.90334H2.75812C2.8065 2.90334 2.8065 2.90334 2.8065 2.85495L2.95166 2.41946C2.95166 2.41946 2.95166 2.41946 2.95166 2.37108C2.95166 2.37108 2.95166 2.37108 2.95166 2.41946L3.09683 2.80656C3.09683 2.85495 3.14521 2.85495 3.14521 2.85495H3.29037C3.33876 2.85495 3.33876 2.85495 3.33876 2.80656L3.5807 2.08076L3.77424 2.80656C3.77424 2.85495 3.82263 2.85495 3.82263 2.85495H3.96779C4.01618 2.85495 4.01618 2.85495 4.01618 2.80656L4.20973 2.41946C4.20973 2.41946 4.20973 2.41946 4.20973 2.37108C4.20973 2.37108 4.20973 2.37108 4.20973 2.41946L4.35489 2.80656C4.35489 2.85495 4.40328 2.85495 4.40328 2.85495H4.54844C4.59683 2.85495 4.59683 2.85495 4.59683 2.80656L4.83876 2.08076L5.03231 2.80656C5.03231 2.85495 5.0807 2.85495 5.0807 2.85495H5.22586C5.27424 2.85495 5.27424 2.85495 5.27424 2.80656L5.46779 2.41946C5.46779 2.41946 5.46779 2.41946 5.46779 2.37108C5.46779 2.37108 5.46779 2.37108 5.46779 2.41946L5.61295 2.80656C5.61295 2.85495 5.66134 2.85495 5.66134 2.85495H5.8065C5.85489 2.85495 5.85489 2.85495 5.85489 2.80656L6.09683 1.98398C6.14521 1.98398 6.14521 1.93559 6.09683 1.93559Z" fill="#8EA5A4"/>
<path d="M10.3064 23.4677C10.1129 23.4677 9.91933 23.4194 9.77417 23.2742L6.09675 19.5968C5.95159 19.4516 5.9032 19.2581 5.9032 19.0645C5.9032 18.871 5.99997 18.6774 6.09675 18.5323L9.77417 14.8548C10.0645 14.5645 10.5 14.5645 10.7903 14.8548C11.0806 15.1452 11.0806 15.5806 10.7903 15.871L7.64514 19.0161L10.7903 22.1613C11.0806 22.4516 11.0806 22.8871 10.7903 23.1774C10.6935 23.371 10.5 23.4677 10.3064 23.4677Z" fill="#DCE5E5"/>
<path d="M19.6935 23.4677C19.5 23.4677 19.3064 23.4194 19.1613 23.2742C18.871 22.9839 18.871 22.5484 19.1613 22.2581L22.3064 19.1129L19.1613 15.9677C18.871 15.6774 18.871 15.2419 19.1613 14.9516C19.4516 14.6613 19.8871 14.6613 20.1774 14.9516L23.8548 18.629C24 18.7742 24.0484 18.9677 24.0484 19.1613C24.0484 19.3548 23.9516 19.5484 23.8548 19.6935L20.1774 23.2258C20.0323 23.371 19.8387 23.4677 19.6935 23.4677Z" fill="#DCE5E5"/>
<path d="M12.5806 25.7419C12.4838 25.7419 12.387 25.7419 12.2903 25.6936C11.9032 25.5484 11.758 25.1129 11.9032 24.7258L16.7419 13.1129C16.8871 12.7258 17.3225 12.5806 17.7096 12.7258C18.0967 12.871 18.2419 13.3065 18.0967 13.6936L13.258 25.3065C13.1129 25.5484 12.8709 25.7419 12.5806 25.7419Z" fill="#DCE5E5"/>
<path d="M10.3064 21.8226C10.1129 21.8226 9.91933 21.7742 9.77417 21.629L6.09675 17.9516C5.95159 17.8065 5.9032 17.6129 5.9032 17.4194C5.9032 17.2258 5.99997 17.0323 6.09675 16.8871L9.77417 13.2097C10.0645 12.9194 10.5 12.9194 10.7903 13.2097C11.0806 13.5 11.0806 13.9355 10.7903 14.2258L7.64514 17.371L10.7903 20.5161C11.0806 20.8065 11.0806 21.2419 10.7903 21.5323C10.6935 21.7742 10.5 21.8226 10.3064 21.8226Z" fill="#00C4D3"/>
<path d="M19.6935 21.8226C19.5 21.8226 19.3064 21.7742 19.1613 21.629C18.871 21.3387 18.871 20.9032 19.1613 20.6129L22.3064 17.4677L19.1613 14.3226C18.871 14.0323 18.871 13.5484 19.1613 13.3065C19.4516 13.0645 19.8871 13.0161 20.1774 13.3065L23.8548 16.9839C24 17.129 24.0484 17.3226 24.0484 17.5161C24.0484 17.7097 23.9516 17.9032 23.8548 18.0484L20.1774 21.7258C20.0323 21.7742 19.8387 21.8226 19.6935 21.8226Z" fill="#00C4D3"/>
<path d="M12.5807 24.0968C12.4839 24.0968 12.3871 24.0968 12.2903 24.0484C11.9032 23.9032 11.7581 23.4677 11.9032 23.0806L16.742 11.4677C16.8871 11.0806 17.3226 10.9355 17.7097 11.0806C18.0968 11.2258 18.242 11.6613 18.0968 12.0484L13.2581 23.6613C13.1129 23.9516 12.871 24.0968 12.5807 24.0968Z" fill="#F7A231"/>
</svg>
