<svg width="144" height="144" viewBox="0 0 144 144" fill="none" xmlns="http://www.w3.org/2000/svg">
<g clip-path="url(#clip0_114_7350)">
<path d="M132.372 14.8783C127.683 10.1896 121.522 7.84424 115.363 7.84424C109.203 7.84424 103.044 10.1882 98.3542 14.8786L10.2952 102.938C6.62007 106.613 4.59591 111.499 4.59619 116.696C4.59619 121.893 6.62007 126.78 10.2952 130.455C13.9703 134.13 18.8561 136.154 24.0531 136.153C29.2503 136.153 34.1364 134.129 37.811 130.454L102.499 65.7668C108.284 59.972 108.281 50.5512 102.49 44.7603C96.696 38.9662 87.2685 38.9662 81.4747 44.7603L72.8083 53.4267C71.9106 54.3242 70.4557 54.3242 69.5582 53.4267C68.6607 52.5292 68.6607 51.0741 69.5582 50.1769L78.2198 41.5155C78.2249 41.5101 101.605 18.1296 101.605 18.1296C109.192 10.5434 121.535 10.5434 129.121 18.1296C136.707 25.7154 136.707 38.0589 129.121 45.6448L57.1849 117.581L60.4361 120.832L132.372 48.8963C141.751 39.5175 141.751 24.2571 132.372 14.8783ZM84.7263 48.0118C88.7276 44.0107 95.2377 44.011 99.2388 48.0118C101.175 49.9476 102.241 52.525 102.241 55.2683C102.241 58.0119 101.175 60.5887 99.2385 62.5249L34.5603 127.203C31.754 130.009 28.0223 131.555 24.0533 131.555C20.0843 131.555 16.353 130.01 13.5461 127.203C10.7398 124.397 9.19407 120.665 9.19407 116.696C9.19407 112.727 10.7395 108.996 13.5458 106.189L63.0582 56.6768C63.956 55.7794 65.4109 55.7794 66.3083 56.6768C67.2058 57.5743 67.2058 59.0295 66.3083 59.9267L32.92 93.3153L36.171 96.5665L84.7263 48.0118Z" fill="#A7CBE6"/>
<path d="M32.9201 93.3153L66.3089 59.9267C67.2064 59.0293 67.2064 57.5741 66.3089 56.6769C65.4112 55.7794 63.9563 55.7794 63.0588 56.6769L13.5459 106.189C10.7398 108.996 9.19409 112.727 9.19409 116.696C9.19409 120.665 10.7396 124.397 13.5462 127.203C16.3527 130.01 20.0844 131.556 24.0534 131.556C28.0224 131.555 31.7537 130.01 34.5603 127.203L99.2385 62.5246C101.174 60.5888 102.241 58.0117 102.241 55.2681C102.241 52.5245 101.175 49.9477 99.2388 48.0116C95.2375 44.0108 88.7274 44.0108 84.7263 48.0116L36.171 96.5666L32.9201 93.3153ZM95.989 51.2617C97.0569 52.3296 97.6447 53.7522 97.6447 55.2681C97.6447 56.784 97.0563 58.2069 95.9884 59.2748L31.3105 123.953C29.3721 125.892 26.7944 126.959 24.0531 126.96C21.3123 126.96 18.7349 125.892 16.7963 123.953C14.8576 122.015 13.79 119.438 13.79 116.696C13.79 113.955 14.8573 111.378 16.796 109.439L29.6699 96.5654L34.546 101.442C34.9771 101.873 35.5613 102.115 36.1713 102.115C36.7813 102.115 37.3652 101.873 37.7966 101.442L87.977 51.2617C90.1854 49.0528 93.78 49.0528 95.989 51.2617Z" fill="#082947"/>
<path d="M135.622 11.6285C124.451 0.457502 106.276 0.457502 95.1041 11.6285L7.04503 99.6881C2.50144 104.231 -0.000281226 110.272 2.37116e-08 116.696C2.37116e-08 123.121 2.50228 129.162 7.04503 133.704C11.5881 138.247 17.6282 140.749 24.0531 140.749C30.4782 140.749 36.5186 138.247 41.0614 133.704L53.9353 120.831L58.8116 125.707C59.7094 126.604 61.1643 126.604 62.0618 125.707L135.622 52.1462C146.793 40.9755 146.793 22.7994 135.622 11.6285ZM60.4364 120.832L57.1852 117.58L129.121 45.6448C136.707 38.0589 136.707 25.7154 129.121 18.1296C121.535 10.5434 109.192 10.5434 101.605 18.1296L78.2246 41.5104C78.2193 41.5158 69.5582 50.1769 69.5582 50.1769C68.6607 51.0743 68.6607 52.5295 69.5582 53.4267C70.4559 54.3242 71.9108 54.3242 72.8083 53.4267L81.4747 44.7606C87.2685 38.9665 96.696 38.9665 102.49 44.7606C108.281 50.5518 108.284 59.9722 102.499 65.7671L37.811 130.454C34.1364 134.129 29.2506 136.153 24.0531 136.153C18.8561 136.153 13.9703 134.13 10.2952 130.455C6.62006 126.78 4.59619 121.893 4.59619 116.696C4.59591 111.499 6.61978 106.613 10.2952 102.938L98.3543 14.8786C103.044 10.1888 109.203 7.84425 115.363 7.84425C121.522 7.84425 127.683 10.1896 132.372 14.8783C141.751 24.2569 141.751 39.5175 132.372 48.8963L60.4364 120.832ZM105.74 41.5104C101.947 37.7175 96.9646 35.821 91.9825 35.821C91.4366 35.821 90.8907 35.8441 90.3459 35.8894L104.856 21.38C110.649 15.5859 120.077 15.5859 125.871 21.38C131.665 27.174 131.665 36.6012 125.871 42.3952L111.361 56.9047C111.822 51.3919 109.949 45.7193 105.74 41.5104Z" fill="#082947"/>
</g>
<defs>
<clipPath id="clip0_114_7350">
<rect width="144" height="144" fill="white"/>
</clipPath>
</defs>
</svg>
