<svg width="58" height="44" viewBox="0 0 58 44" fill="none" xmlns="http://www.w3.org/2000/svg">
<path d="M11.642 35.1475C9.99172 35.1475 8.49146 33.7554 8.49146 32.054C8.49146 30.3525 9.8417 28.9604 11.642 28.9604C13.4423 28.9604 14.7926 30.3525 14.7926 32.054C14.7926 33.7554 13.2923 35.1475 11.642 35.1475ZM50.3487 18.2878C50.0486 15.8129 48.5484 13.8022 46.598 12.2554L45.8479 11.6367L45.2478 12.4101C44.0476 13.8022 43.5975 16.277 43.7475 18.1331C43.8976 19.5252 44.3476 20.9173 45.0978 22C44.4977 22.3094 43.7475 22.6187 43.1474 22.9281C41.7972 23.3921 40.447 23.5468 39.0967 23.5468H0.240041L0.0900155 24.4748C-0.210036 27.4137 0.240041 30.5072 1.44025 33.2914L2.04035 34.3741V34.5288C5.64097 40.7158 12.0921 43.5 19.1433 43.5C32.6456 43.5 43.7475 37.4676 48.9984 24.4748C52.449 24.6295 55.8996 23.7014 57.5499 20.2986L58 19.5252L57.2499 19.0612C55.2995 17.8237 52.5991 17.6691 50.3487 18.2878ZM30.9953 15.8129H25.1443V21.8453H30.9953V15.8129ZM30.9953 8.23381H25.1443V14.2662H30.9953V8.23381ZM30.9953 0.5H25.1443V6.53237H30.9953V0.5ZM38.1966 15.8129H32.3456V21.8453H38.1966V15.8129ZM16.4428 15.8129H10.5918V21.8453H16.4428V15.8129ZM23.7941 15.8129H17.9431V21.8453H23.7941V15.8129ZM9.24159 15.8129H3.39058V21.8453H9.24159V15.8129ZM23.7941 8.23381H17.9431V14.2662H23.7941V8.23381ZM16.4428 8.23381H10.5918V14.2662H16.4428V8.23381Z" fill="#5E56E9"/>
</svg>
