<svg width="20" height="20" viewBox="0 0 20 20" fill="none" xmlns="http://www.w3.org/2000/svg">
<path d="M18 5.72288C18 5.89527 17.9112 6.05551 17.765 6.14688L10.265 10.8344C10.1029 10.9357 9.89714 10.9357 9.735 10.8344L2.235 6.14687C2.08881 6.05551 2 5.89527 2 5.72288V4.90212C2 4.50941 2.43198 4.26998 2.765 4.47812L10 9L17.235 4.47812C17.568 4.26998 18 4.50941 18 4.90212V5.72288ZM18 2H2C0.89 2 0 2.89 0 4V16C0 16.5304 0.210714 17.0391 0.585786 17.4142C0.960859 17.7893 1.46957 18 2 18H18C18.5304 18 19.0391 17.7893 19.4142 17.4142C19.7893 17.0391 20 16.5304 20 16V4C20 2.89 19.1 2 18 2Z" fill="black"/>
</svg>
