<svg width="50" height="51" viewBox="0 0 50 51" fill="none" xmlns="http://www.w3.org/2000/svg">
<path fill-rule="evenodd" clip-rule="evenodd" d="M50 0.5H0V50.5H50V0.5ZM16.973 39.968L13.1469 42.2836C14.2545 44.633 16.4361 46.5793 20.1949 46.5793C24.357 46.5793 27.2098 44.3641 27.2098 39.4975V23.4549H22.5111V39.4311C22.5111 41.7803 21.5375 42.3842 19.9935 42.3842C18.3828 42.3842 17.7113 41.2768 16.973 39.968ZM33.5877 39.5651L29.7619 41.7801C31.1379 44.4989 33.957 46.5799 38.3201 46.5799C42.784 46.5799 46.1066 44.2643 46.1066 40.035C46.1066 36.1084 43.858 34.3633 39.8638 32.6514L38.6892 32.1481C36.6756 31.2754 35.8029 30.7045 35.8029 29.2949C35.8029 28.1539 36.6756 27.2813 38.0517 27.2813C39.3943 27.2813 40.2666 27.8518 41.0723 29.2949L44.7308 26.9453C43.1871 24.2268 41.039 23.1862 38.0519 23.1862C33.8564 23.1862 31.1715 25.8713 31.1715 29.3955C31.1715 33.2217 33.4201 35.0342 36.8101 36.477L37.9846 36.9809C40.1326 37.9203 41.408 38.491 41.408 40.102C41.408 41.4446 40.1666 42.418 38.2195 42.418C35.9039 42.418 34.5949 41.2098 33.5877 39.5651Z" fill="#5E56E9"/>
</svg>
