<svg width="153" height="46" viewBox="0 0 153 46" fill="none" xmlns="http://www.w3.org/2000/svg">
<path d="M55.374 19.3867L51.5193 8.20713H51.4369C51.4552 8.45739 51.4766 8.79922 51.501 9.23261C51.5254 9.66599 51.5467 10.1299 51.5651 10.6243C51.5834 11.1188 51.5925 11.5918 51.5925 12.0435V19.3867H49.5965V6.00052H52.6821L56.3903 16.6856H56.4452L60.2816 6.00052H63.3581V19.3867H61.2613V11.9336C61.2613 11.5247 61.2674 11.0821 61.2796 10.606C61.2979 10.1299 61.3163 9.6782 61.3346 9.25092C61.359 8.82364 61.3773 8.48181 61.3895 8.22544H61.3163L57.3151 19.3867H55.374Z" fill="url(#paint0_linear_324_495)"/>
<path d="M75.6363 14.2959C75.6363 15.1383 75.5265 15.886 75.3067 16.5391C75.087 17.1923 74.7665 17.7447 74.3453 18.1964C73.9241 18.642 73.4175 18.9838 72.8254 19.2219C72.2333 19.4538 71.5649 19.5698 70.8202 19.5698C70.1244 19.5698 69.4865 19.4538 68.9066 19.2219C68.3267 18.9838 67.8232 18.642 67.3959 18.1964C66.9747 17.7447 66.6481 17.1923 66.4162 16.5391C66.1842 15.886 66.0682 15.1383 66.0682 14.2959C66.0682 13.1789 66.2605 12.2327 66.6451 11.4575C67.0357 10.6762 67.5912 10.0811 68.3115 9.6721C69.0318 9.26313 69.8894 9.05864 70.8843 9.05864C71.8183 9.05864 72.6423 9.26313 73.3565 9.6721C74.0706 10.0811 74.6292 10.6762 75.032 11.4575C75.4349 12.2388 75.6363 13.185 75.6363 14.2959ZM68.284 14.2959C68.284 15.0345 68.3725 15.6663 68.5495 16.1912C68.7327 16.7162 69.0134 17.119 69.3919 17.3998C69.7703 17.6745 70.2587 17.8118 70.8569 17.8118C71.4551 17.8118 71.9434 17.6745 72.3218 17.3998C72.7003 17.119 72.978 16.7162 73.155 16.1912C73.3321 15.6663 73.4206 15.0345 73.4206 14.2959C73.4206 13.5573 73.3321 12.9317 73.155 12.4189C72.978 11.9001 72.7003 11.5064 72.3218 11.2378C71.9434 10.9631 71.452 10.8258 70.8477 10.8258C69.9565 10.8258 69.3064 11.1249 68.8975 11.7231C68.4885 12.3212 68.284 13.1789 68.284 14.2959Z" fill="url(#paint1_linear_324_495)"/>
<path d="M89.5627 9.05864C90.698 9.05864 91.5526 9.35163 92.1264 9.93762C92.7063 10.5236 92.9962 11.4636 92.9962 12.7577V19.3867H90.8445V13.1422C90.8445 12.3731 90.695 11.7932 90.3959 11.4026C90.0968 11.0119 89.642 10.8166 89.0316 10.8166C88.1771 10.8166 87.5606 11.0913 87.1821 11.6406C86.8098 12.1839 86.6236 12.9744 86.6236 14.0121V19.3867H84.4719V13.1422C84.4719 12.6295 84.4048 12.2022 84.2705 11.8604C84.1423 11.5125 83.9439 11.253 83.6753 11.0821C83.4068 10.9051 83.068 10.8166 82.659 10.8166C82.0669 10.8166 81.5939 10.9509 81.2398 11.2195C80.8919 11.488 80.6416 11.8848 80.489 12.4098C80.3364 12.9286 80.2601 13.5665 80.2601 14.3234V19.3867H78.1085V9.25092H79.784L80.0862 10.6152H80.2052C80.4127 10.2611 80.6691 9.97119 80.9743 9.74534C81.2856 9.51339 81.6305 9.34248 82.0089 9.23261C82.3874 9.11663 82.7811 9.05864 83.1901 9.05864C83.947 9.05864 84.5848 9.19293 85.1037 9.46151C85.6225 9.72398 86.0101 10.1268 86.2665 10.6701H86.4313C86.7487 10.1207 87.1913 9.71482 87.7589 9.45235C88.3266 9.18988 88.9279 9.05864 89.5627 9.05864Z" fill="url(#paint2_linear_324_495)"/>
<path d="M100.037 9.05864C100.941 9.05864 101.716 9.24481 102.363 9.61716C103.01 9.98951 103.507 10.5175 103.855 11.2012C104.203 11.8848 104.377 12.7027 104.377 13.655V14.8086H97.6109C97.6353 15.7914 97.8977 16.5483 98.3983 17.0793C98.9049 17.6104 99.613 17.8759 100.522 17.8759C101.17 17.8759 101.749 17.8149 102.262 17.6928C102.781 17.5646 103.315 17.3784 103.864 17.1343V18.8831C103.358 19.1211 102.842 19.2951 102.317 19.405C101.792 19.5149 101.163 19.5698 100.431 19.5698C99.436 19.5698 98.56 19.3775 97.8031 18.993C97.0523 18.6023 96.4633 18.0224 96.036 17.2533C95.6148 16.4842 95.4042 15.5289 95.4042 14.3875C95.4042 13.2521 95.5965 12.2877 95.9811 11.4942C96.3656 10.7006 96.9058 10.0963 97.6017 9.68125C98.2976 9.26618 99.1094 9.05864 100.037 9.05864ZM100.037 10.6793C99.3597 10.6793 98.8103 10.899 98.3891 11.3385C97.974 11.778 97.7299 12.422 97.6566 13.2704H102.271C102.265 12.7638 102.18 12.3151 102.015 11.9245C101.856 11.5338 101.612 11.2286 101.282 11.0089C100.959 10.7891 100.544 10.6793 100.037 10.6793Z" fill="url(#paint3_linear_324_495)"/>
<path d="M112.087 9.05864C113.228 9.05864 114.116 9.35469 114.751 9.94678C115.392 10.5328 115.712 11.4758 115.712 12.776V19.3867H113.561V13.1789C113.561 12.3914 113.399 11.8024 113.075 11.4117C112.752 11.015 112.251 10.8166 111.574 10.8166C110.591 10.8166 109.907 11.1188 109.523 11.7231C109.144 12.3274 108.955 13.2033 108.955 14.3508V19.3867H106.804V9.25092H108.479L108.781 10.6243H108.9C109.12 10.2703 109.392 9.98035 109.715 9.7545C110.045 9.52255 110.411 9.34858 110.814 9.23261C111.223 9.11663 111.647 9.05864 112.087 9.05864Z" fill="url(#paint4_linear_324_495)"/>
<path d="M122.497 17.8301C122.778 17.8301 123.056 17.8057 123.33 17.7569C123.605 17.702 123.855 17.6379 124.081 17.5646V19.1944C123.843 19.2982 123.535 19.3867 123.156 19.4599C122.778 19.5332 122.384 19.5698 121.975 19.5698C121.401 19.5698 120.886 19.4752 120.428 19.286C119.97 19.0906 119.607 18.758 119.338 18.2879C119.07 17.8179 118.935 17.1679 118.935 16.3377V10.8899H117.553V9.92847L119.036 9.16851L119.741 6.99853H121.096V9.25092H123.999V10.8899H121.096V16.3102C121.096 16.823 121.224 17.2045 121.481 17.4547C121.737 17.705 122.076 17.8301 122.497 17.8301Z" fill="url(#paint5_linear_324_495)"/>
<path d="M134.977 9.25092V19.3867H133.283L132.99 18.0224H132.871C132.657 18.3703 132.386 18.6603 132.056 18.8922C131.726 19.1181 131.36 19.286 130.957 19.3958C130.554 19.5118 130.13 19.5698 129.685 19.5698C128.922 19.5698 128.268 19.4416 127.725 19.1852C127.188 18.9228 126.776 18.5199 126.489 17.9766C126.202 17.4334 126.059 16.7314 126.059 15.8707V9.25092H128.22V15.4679C128.22 16.2553 128.378 16.8443 128.696 17.235C129.019 17.6257 129.52 17.821 130.197 17.821C130.85 17.821 131.369 17.6867 131.754 17.4181C132.138 17.1495 132.41 16.7528 132.569 16.2278C132.733 15.7029 132.816 15.0589 132.816 14.2959V9.25092H134.977Z" fill="url(#paint6_linear_324_495)"/>
<path d="M149.517 9.05864C150.652 9.05864 151.506 9.35163 152.08 9.93762C152.66 10.5236 152.95 11.4636 152.95 12.7577V19.3867H150.798V13.1422C150.798 12.3731 150.649 11.7932 150.35 11.4026C150.051 11.0119 149.596 10.8166 148.985 10.8166C148.131 10.8166 147.514 11.0913 147.136 11.6406C146.764 12.1839 146.577 12.9744 146.577 14.0121V19.3867H144.426V13.1422C144.426 12.6295 144.359 12.2022 144.224 11.8604C144.096 11.5125 143.898 11.253 143.629 11.0821C143.361 10.9051 143.022 10.8166 142.613 10.8166C142.021 10.8166 141.548 10.9509 141.194 11.2195C140.846 11.488 140.595 11.8848 140.443 12.4098C140.29 12.9286 140.214 13.5665 140.214 14.3234V19.3867H138.062V9.25092H139.738L140.04 10.6152H140.159C140.367 10.2611 140.623 9.97119 140.928 9.74534C141.239 9.51339 141.584 9.34248 141.963 9.23261C142.341 9.11663 142.735 9.05864 143.144 9.05864C143.901 9.05864 144.539 9.19293 145.058 9.46151C145.576 9.72398 145.964 10.1268 146.22 10.6701H146.385C146.703 10.1207 147.145 9.71482 147.713 9.45235C148.28 9.18988 148.882 9.05864 149.517 9.05864Z" fill="url(#paint7_linear_324_495)"/>
<path d="M57.3242 36.7443C57.3242 37.5379 57.1289 38.2215 56.7382 38.7953C56.3537 39.3691 55.7982 39.8086 55.0718 40.1138C54.3516 40.419 53.4909 40.5716 52.4898 40.5716C52.0015 40.5716 51.5345 40.5441 51.0889 40.4892C50.6433 40.4342 50.2222 40.3549 49.8254 40.2511C49.4348 40.1412 49.0777 40.01 48.7542 39.8574V37.7881C49.2974 38.0262 49.9048 38.2429 50.5762 38.4382C51.2476 38.6274 51.9313 38.7221 52.6272 38.7221C53.1948 38.7221 53.6648 38.6488 54.0372 38.5023C54.4156 38.3497 54.6964 38.1361 54.8796 37.8614C55.0627 37.5806 55.1542 37.254 55.1542 36.8817C55.1542 36.4849 55.0474 36.1492 54.8338 35.8745C54.6201 35.5998 54.2966 35.3496 53.8632 35.1237C53.4359 34.8918 52.8988 34.6446 52.2518 34.3821C51.8123 34.2051 51.3911 34.0036 50.9882 33.7778C50.5915 33.5519 50.2374 33.2864 49.9261 32.9812C49.6148 32.676 49.3676 32.3159 49.1845 31.9008C49.0075 31.4796 48.919 30.9852 48.919 30.4175C48.919 29.6606 49.099 29.0136 49.4592 28.4764C49.8254 27.9393 50.3381 27.5273 50.9974 27.2404C51.6627 26.9535 52.4379 26.81 53.323 26.81C54.025 26.81 54.6842 26.8833 55.3007 27.0298C55.9233 27.1763 56.5337 27.3838 57.1319 27.6524L56.4361 29.4195C55.8867 29.1937 55.3526 29.0136 54.8338 28.8793C54.321 28.745 53.7961 28.6779 53.2589 28.6779C52.795 28.6779 52.4013 28.7481 52.0778 28.8885C51.7543 29.0288 51.5071 29.2272 51.3362 29.4836C51.1713 29.7339 51.0889 30.033 51.0889 30.3809C51.0889 30.7715 51.1836 31.1012 51.3728 31.3697C51.5681 31.6322 51.8672 31.8733 52.2701 32.0931C52.679 32.3128 53.204 32.557 53.8449 32.8256C54.5835 33.1308 55.2092 33.4512 55.7219 33.7869C56.2408 34.1227 56.6375 34.5255 56.9122 34.9955C57.1869 35.4594 57.3242 36.0424 57.3242 36.7443Z" fill="url(#paint8_linear_324_495)"/>
<path d="M66.1232 44.8841V40.5807C66.1232 40.3366 66.1293 40.071 66.1415 39.7842C66.1598 39.4973 66.1873 39.2348 66.2239 38.9967H66.114C65.8393 39.4423 65.4578 39.8177 64.9695 40.1229C64.4812 40.422 63.8433 40.5716 63.0559 40.5716C61.8656 40.5716 60.9073 40.1321 60.1809 39.2531C59.4545 38.368 59.0913 37.0618 59.0913 35.3343C59.0913 34.1868 59.2592 33.2223 59.5949 32.441C59.9306 31.6597 60.4007 31.0676 61.005 30.6647C61.6154 30.2619 62.3234 30.0604 63.1292 30.0604C63.9044 30.0604 64.5331 30.213 65.0153 30.5182C65.5036 30.8173 65.8943 31.1866 66.1873 31.6261H66.2605L66.4986 30.2527H68.284V44.8841H66.1232ZM63.6968 38.8411C64.3072 38.8411 64.7956 38.7251 65.1618 38.4932C65.528 38.2612 65.7936 37.9102 65.9584 37.4402C66.1232 36.9641 66.2117 36.3751 66.2239 35.6731V35.3435C66.2239 34.1959 66.0377 33.323 65.6654 32.7248C65.293 32.1266 64.6307 31.8275 63.6785 31.8275C62.8728 31.8275 62.2746 32.1419 61.8839 32.7706C61.4933 33.3932 61.2979 34.26 61.2979 35.3709C61.2979 36.4941 61.4933 37.3548 61.8839 37.9529C62.2807 38.545 62.885 38.8411 63.6968 38.8411Z" fill="url(#paint9_linear_324_495)"/>
<path d="M80.2052 30.2527V40.3885H78.5113L78.2183 39.0242H78.0993C77.8857 39.3721 77.614 39.6621 77.2844 39.894C76.9548 40.1199 76.5886 40.2877 76.1857 40.3976C75.7828 40.5136 75.3586 40.5716 74.913 40.5716C74.15 40.5716 73.4969 40.4434 72.9536 40.187C72.4164 39.9246 72.0044 39.5217 71.7175 38.9784C71.4306 38.4352 71.2872 37.7332 71.2872 36.8725V30.2527H73.448V36.4697C73.448 37.2571 73.6067 37.8461 73.9241 38.2368C74.2477 38.6274 74.7482 38.8228 75.4257 38.8228C76.0789 38.8228 76.5977 38.6885 76.9823 38.4199C77.3668 38.1513 77.6384 37.7546 77.7972 37.2296C77.962 36.7047 78.0444 36.0607 78.0444 35.2977V30.2527H80.2052Z" fill="url(#paint10_linear_324_495)"/>
<path d="M87.2645 30.0604C88.5464 30.0604 89.5139 30.3443 90.167 30.9119C90.8262 31.4796 91.1558 32.3647 91.1558 33.5672V40.3885H89.6268L89.2148 38.951H89.1415C88.8546 39.3172 88.5586 39.6194 88.2534 39.8574C87.9482 40.0955 87.5941 40.2725 87.1913 40.3885C86.7945 40.5105 86.3092 40.5716 85.7355 40.5716C85.1312 40.5716 84.5909 40.4617 84.1148 40.242C83.6387 40.0161 83.2633 39.6743 82.9886 39.2165C82.714 38.7587 82.5766 38.1788 82.5766 37.4768C82.5766 36.433 82.9642 35.6487 83.7394 35.1237C84.5207 34.5988 85.6988 34.3088 87.2737 34.2539L89.0316 34.1898V33.6588C89.0316 32.9568 88.8668 32.4563 88.5372 32.1572C88.2137 31.8581 87.7559 31.7085 87.1638 31.7085C86.6572 31.7085 86.1658 31.7818 85.6897 31.9283C85.2136 32.0748 84.7497 32.2548 84.298 32.4685L83.6021 30.9486C84.0965 30.6861 84.6581 30.4725 85.2868 30.3076C85.9216 30.1428 86.5809 30.0604 87.2645 30.0604ZM89.0225 35.5449L87.7132 35.5907C86.6389 35.6273 85.885 35.8104 85.4516 36.14C85.0182 36.4697 84.8015 36.9214 84.8015 37.4951C84.8015 37.9957 84.9511 38.3619 85.2502 38.5939C85.5493 38.8197 85.943 38.9326 86.4313 38.9326C87.176 38.9326 87.7925 38.7221 88.2808 38.3009C88.7753 37.8736 89.0225 37.2479 89.0225 36.4239V35.5449Z" fill="url(#paint11_linear_324_495)"/>
<path d="M97.5742 40.5716C96.3656 40.5716 95.3951 40.1321 94.6626 39.2531C93.9362 38.368 93.573 37.0648 93.573 35.3435C93.573 33.6038 93.9423 32.2884 94.6809 31.3972C95.4256 30.506 96.4053 30.0604 97.62 30.0604C98.1328 30.0604 98.5814 30.1306 98.966 30.271C99.3505 30.4053 99.6801 30.5884 99.9548 30.8204C100.236 31.0523 100.474 31.3118 100.669 31.5986H100.77C100.739 31.4094 100.703 31.1378 100.66 30.7838C100.623 30.4236 100.605 30.091 100.605 29.7857V26.1416H102.766V40.3885H101.081L100.696 39.0059H100.605C100.422 39.2989 100.19 39.5644 99.909 39.8025C99.6343 40.0344 99.3047 40.2206 98.9202 40.361C98.5417 40.5014 98.0931 40.5716 97.5742 40.5716ZM98.1785 38.8228C99.1002 38.8228 99.7503 38.5572 100.129 38.0262C100.507 37.4951 100.703 36.6986 100.715 35.6365V35.3526C100.715 34.2173 100.532 33.3475 100.165 32.7432C99.7992 32.1327 99.1308 31.8275 98.1602 31.8275C97.385 31.8275 96.7929 32.1419 96.3839 32.7706C95.9811 33.3932 95.7796 34.2631 95.7796 35.3801C95.7796 36.4971 95.9811 37.3517 96.3839 37.9438C96.7929 38.5298 97.3911 38.8228 98.1785 38.8228Z" fill="url(#paint12_linear_324_495)"/>
<path d="M112.663 37.4951C112.663 38.1605 112.502 38.7221 112.178 39.1799C111.855 39.6377 111.382 39.9856 110.759 40.2236C110.142 40.4556 109.386 40.5716 108.488 40.5716C107.78 40.5716 107.17 40.5197 106.657 40.4159C106.15 40.3183 105.671 40.1657 105.22 39.9581V38.0994C105.702 38.3253 106.242 38.5206 106.84 38.6854C107.444 38.8502 108.015 38.9326 108.552 38.9326C109.26 38.9326 109.77 38.8228 110.081 38.603C110.393 38.3772 110.548 38.0781 110.548 37.7057C110.548 37.486 110.484 37.2907 110.356 37.1197C110.234 36.9427 110.002 36.7627 109.66 36.5795C109.325 36.3903 108.83 36.1645 108.177 35.902C107.536 35.6456 106.996 35.3893 106.556 35.1329C106.117 34.8765 105.784 34.5683 105.558 34.2081C105.332 33.8419 105.22 33.3749 105.22 32.8072C105.22 31.91 105.574 31.2294 106.282 30.7654C106.996 30.2954 107.939 30.0604 109.111 30.0604C109.733 30.0604 110.319 30.1245 110.869 30.2527C111.424 30.3748 111.968 30.5549 112.499 30.7929L111.821 32.4135C111.363 32.2121 110.902 32.0473 110.438 31.9191C109.981 31.7848 109.514 31.7177 109.038 31.7177C108.482 31.7177 108.058 31.8031 107.765 31.974C107.478 32.145 107.335 32.3891 107.335 32.7065C107.335 32.9446 107.405 33.146 107.545 33.3108C107.686 33.4756 107.927 33.6404 108.269 33.8053C108.616 33.9701 109.099 34.1745 109.715 34.4187C110.319 34.6507 110.841 34.8948 111.281 35.1512C111.726 35.4015 112.068 35.7097 112.306 36.076C112.544 36.4422 112.663 36.9153 112.663 37.4951Z" fill="url(#paint13_linear_324_495)"/>
<path fill-rule="evenodd" clip-rule="evenodd" d="M25.2569 3.6735C25.2569 4.07444 25.1926 4.46038 25.0739 4.82159L39.3677 13.068C39.9094 13.3806 40.2432 13.9584 40.2432 14.5838V25.7165C40.2432 26.1307 39.9074 26.4665 39.4932 26.4665C39.079 26.4665 38.7432 26.1307 38.7432 25.7165V14.5838C38.7432 14.4945 38.6955 14.4119 38.6181 14.3673L24.3234 6.12035C23.6507 6.87313 22.6724 7.347 21.5834 7.347C19.5545 7.347 17.9099 5.70231 17.9099 3.6735C17.9099 1.64468 19.5545 0 21.5834 0C23.6122 0 25.2569 1.64468 25.2569 3.6735ZM20.7086 17.0893C21.2498 16.777 21.9164 16.777 22.4576 17.0893L27.427 19.9563C27.9688 20.2688 28.3025 20.8467 28.3025 21.4721V27.2048C28.3025 27.8302 27.9688 28.4081 27.427 28.7206L22.4576 31.5876C21.9164 31.8998 21.2498 31.8998 20.7086 31.5876L15.7391 28.7206C15.1974 28.408 14.8637 27.8302 14.8637 27.2048V21.4721C14.8637 20.8467 15.1974 20.2688 15.7391 19.9563L20.7086 17.0893ZM21.708 18.3885C21.6307 18.3439 21.5355 18.3439 21.4582 18.3885L16.4887 21.2555C16.4113 21.3002 16.3637 21.3827 16.3637 21.4721V27.2048C16.3637 27.2941 16.4113 27.3767 16.4887 27.4213L21.4582 30.2883C21.5355 30.3329 21.6307 30.3329 21.708 30.2883L26.6775 27.4213C26.7548 27.3767 26.8025 27.2941 26.8025 27.2048V21.4721C26.8025 21.3827 26.7548 21.3002 26.6775 21.2555L21.708 18.3885ZM22.4589 10.2014C21.9169 9.88865 21.2491 9.88915 20.7076 10.2027L16.8451 12.4388C16.4867 12.6464 16.3643 13.1052 16.5718 13.4637C16.7794 13.8222 17.2382 13.9445 17.5967 13.737L21.4591 11.5008C21.5365 11.456 21.6319 11.456 21.7093 11.5006L30.0325 16.3025C29.9139 16.6635 29.8497 17.0493 29.8497 17.4501C29.8497 19.4789 31.4944 21.1236 33.5232 21.1236C35.552 21.1236 37.1967 19.4789 37.1967 17.4501C37.1967 15.4212 35.552 13.7766 33.5232 13.7766C32.434 13.7766 31.4555 14.2506 30.7828 15.0036L22.4589 10.2014ZM10.3937 21.0469C12.0627 20.7006 13.317 19.2218 13.317 17.4501C13.317 15.4212 11.6723 13.7766 9.64348 13.7766C7.61466 13.7766 5.96998 15.4212 5.96998 17.4501C5.96998 19.2219 7.22444 20.7008 8.89368 21.047V30.6507C8.89368 31.2752 9.22643 31.8524 9.76686 32.1652L13.6305 34.4021C13.989 34.6096 14.4478 34.4873 14.6554 34.1288C14.8629 33.7703 14.7405 33.3115 14.3821 33.1039L10.5184 30.8671C10.4412 30.8224 10.3937 30.7399 10.3937 30.6507V21.0469ZM14.3816 8.68575C14.7402 8.47853 14.863 8.01979 14.6557 7.66114C14.4485 7.30249 13.9898 7.17973 13.6311 7.38695L3.79835 13.0681C3.25717 13.3808 2.92384 13.9584 2.92384 14.5834V31.0743C1.25454 31.4204 0 32.8993 0 34.6712C0 36.7001 1.64468 38.3447 3.6735 38.3447C5.70231 38.3447 7.347 36.7001 7.347 34.6712C7.347 32.8996 6.0928 31.4208 4.42384 31.0744V14.5834C4.42384 14.4941 4.47146 14.4116 4.54877 14.3669L14.3816 8.68575ZM35.8196 34.6712C35.8196 35.1292 35.9034 35.5677 36.0565 35.972L21.4578 44.3944C21.3804 44.439 21.2851 44.439 21.2078 44.3943L11.3752 38.7132C11.0166 38.506 10.5578 38.6288 10.3506 38.9874C10.1434 39.3461 10.2661 39.8048 10.6248 40.012L20.4574 45.6931C20.9987 46.0059 21.6658 46.0061 22.2074 45.6936L36.8646 37.2375C37.5317 37.9207 38.4629 38.3447 39.4931 38.3447C41.5219 38.3447 43.1666 36.7001 43.1666 34.6712C43.1666 32.6424 41.5219 30.9977 39.4931 30.9977C37.4643 30.9977 35.8196 32.6424 35.8196 34.6712ZM34.2724 26.4055C34.2724 25.9913 33.9366 25.6555 33.5224 25.6555C33.1081 25.6555 32.7724 25.9913 32.7724 26.4055V30.6494C32.7724 30.7387 32.7247 30.8213 32.6473 30.8659L24.3234 35.6682C23.6507 34.9154 22.6724 34.4415 21.5834 34.4415C19.5545 34.4415 17.9099 36.0862 17.9099 38.115C17.9099 40.1439 19.5545 41.7885 21.5834 41.7885C23.6122 41.7885 25.2569 40.1439 25.2569 38.115C25.2569 37.7141 25.1926 37.3281 25.0739 36.9669L33.3969 32.1652C33.9386 31.8527 34.2724 31.2748 34.2724 30.6494V26.4055Z" fill="url(#paint14_linear_324_495)"/>
<defs>
<linearGradient id="paint0_linear_324_495" x1="100.852" y1="6.00052" x2="100.852" y2="44.8841" gradientUnits="userSpaceOnUse">
<stop stop-color="#5E56E9"/>
<stop offset="0.380208" stop-color="#884CDF"/>
<stop offset="0.703125" stop-color="#B94CDF"/>
<stop offset="1" stop-color="#FB39C5"/>
</linearGradient>
<linearGradient id="paint1_linear_324_495" x1="100.852" y1="6.00052" x2="100.852" y2="44.8841" gradientUnits="userSpaceOnUse">
<stop stop-color="#5E56E9"/>
<stop offset="0.380208" stop-color="#884CDF"/>
<stop offset="0.703125" stop-color="#B94CDF"/>
<stop offset="1" stop-color="#FB39C5"/>
</linearGradient>
<linearGradient id="paint2_linear_324_495" x1="100.852" y1="6.00052" x2="100.852" y2="44.8841" gradientUnits="userSpaceOnUse">
<stop stop-color="#5E56E9"/>
<stop offset="0.380208" stop-color="#884CDF"/>
<stop offset="0.703125" stop-color="#B94CDF"/>
<stop offset="1" stop-color="#FB39C5"/>
</linearGradient>
<linearGradient id="paint3_linear_324_495" x1="100.852" y1="6.00052" x2="100.852" y2="44.8841" gradientUnits="userSpaceOnUse">
<stop stop-color="#5E56E9"/>
<stop offset="0.380208" stop-color="#884CDF"/>
<stop offset="0.703125" stop-color="#B94CDF"/>
<stop offset="1" stop-color="#FB39C5"/>
</linearGradient>
<linearGradient id="paint4_linear_324_495" x1="100.852" y1="6.00052" x2="100.852" y2="44.8841" gradientUnits="userSpaceOnUse">
<stop stop-color="#5E56E9"/>
<stop offset="0.380208" stop-color="#884CDF"/>
<stop offset="0.703125" stop-color="#B94CDF"/>
<stop offset="1" stop-color="#FB39C5"/>
</linearGradient>
<linearGradient id="paint5_linear_324_495" x1="100.852" y1="6.00052" x2="100.852" y2="44.8841" gradientUnits="userSpaceOnUse">
<stop stop-color="#5E56E9"/>
<stop offset="0.380208" stop-color="#884CDF"/>
<stop offset="0.703125" stop-color="#B94CDF"/>
<stop offset="1" stop-color="#FB39C5"/>
</linearGradient>
<linearGradient id="paint6_linear_324_495" x1="100.852" y1="6.00052" x2="100.852" y2="44.8841" gradientUnits="userSpaceOnUse">
<stop stop-color="#5E56E9"/>
<stop offset="0.380208" stop-color="#884CDF"/>
<stop offset="0.703125" stop-color="#B94CDF"/>
<stop offset="1" stop-color="#FB39C5"/>
</linearGradient>
<linearGradient id="paint7_linear_324_495" x1="100.852" y1="6.00052" x2="100.852" y2="44.8841" gradientUnits="userSpaceOnUse">
<stop stop-color="#5E56E9"/>
<stop offset="0.380208" stop-color="#884CDF"/>
<stop offset="0.703125" stop-color="#B94CDF"/>
<stop offset="1" stop-color="#FB39C5"/>
</linearGradient>
<linearGradient id="paint8_linear_324_495" x1="100.852" y1="6.00052" x2="100.852" y2="44.8841" gradientUnits="userSpaceOnUse">
<stop stop-color="#5E56E9"/>
<stop offset="0.380208" stop-color="#884CDF"/>
<stop offset="0.703125" stop-color="#B94CDF"/>
<stop offset="1" stop-color="#FB39C5"/>
</linearGradient>
<linearGradient id="paint9_linear_324_495" x1="100.852" y1="6.00052" x2="100.852" y2="44.8841" gradientUnits="userSpaceOnUse">
<stop stop-color="#5E56E9"/>
<stop offset="0.380208" stop-color="#884CDF"/>
<stop offset="0.703125" stop-color="#B94CDF"/>
<stop offset="1" stop-color="#FB39C5"/>
</linearGradient>
<linearGradient id="paint10_linear_324_495" x1="100.852" y1="6.00052" x2="100.852" y2="44.8841" gradientUnits="userSpaceOnUse">
<stop stop-color="#5E56E9"/>
<stop offset="0.380208" stop-color="#884CDF"/>
<stop offset="0.703125" stop-color="#B94CDF"/>
<stop offset="1" stop-color="#FB39C5"/>
</linearGradient>
<linearGradient id="paint11_linear_324_495" x1="100.852" y1="6.00052" x2="100.852" y2="44.8841" gradientUnits="userSpaceOnUse">
<stop stop-color="#5E56E9"/>
<stop offset="0.380208" stop-color="#884CDF"/>
<stop offset="0.703125" stop-color="#B94CDF"/>
<stop offset="1" stop-color="#FB39C5"/>
</linearGradient>
<linearGradient id="paint12_linear_324_495" x1="100.852" y1="6.00052" x2="100.852" y2="44.8841" gradientUnits="userSpaceOnUse">
<stop stop-color="#5E56E9"/>
<stop offset="0.380208" stop-color="#884CDF"/>
<stop offset="0.703125" stop-color="#B94CDF"/>
<stop offset="1" stop-color="#FB39C5"/>
</linearGradient>
<linearGradient id="paint13_linear_324_495" x1="100.852" y1="6.00052" x2="100.852" y2="44.8841" gradientUnits="userSpaceOnUse">
<stop stop-color="#5E56E9"/>
<stop offset="0.380208" stop-color="#884CDF"/>
<stop offset="0.703125" stop-color="#B94CDF"/>
<stop offset="1" stop-color="#FB39C5"/>
</linearGradient>
<linearGradient id="paint14_linear_324_495" x1="21.5833" y1="0" x2="21.5833" y2="45.9278" gradientUnits="userSpaceOnUse">
<stop stop-color="#5E56E9"/>
<stop offset="0.380208" stop-color="#884CDF"/>
<stop offset="0.703125" stop-color="#B94CDF"/>
<stop offset="1" stop-color="#FB39C5"/>
</linearGradient>
</defs>
</svg>
