<svg width="24" height="51" viewBox="0 0 24 51" fill="none" xmlns="http://www.w3.org/2000/svg">
<path d="M11.8011 0.695176C11.7807 0.611832 11.7595 0.54638 11.7375 0.5C11.6712 1.53895 11.6382 1.92878 10.6458 2.96772C9.12442 4.1365 1.25303 10.5975 0.624764 23.7467C0.00796723 36.0053 9.65394 43.3258 10.963 44.261C11.8925 46.3996 11.8035 50.0451 11.8035 50.0451L13.1593 50.5C13.1593 50.5 12.8948 46.9286 13.2919 45.2402C13.403 44.7145 13.6714 44.2556 13.9907 43.8716C14.2246 43.7105 14.8363 43.27 15.6425 42.5459C15.6837 42.524 15.7064 42.5128 15.7064 42.5128L15.7047 42.4899C18.9155 39.5841 25.0648 32.2864 22.9821 20.3373C20.9092 11.3679 16.6574 7.06474 14.5185 4.90005C13.8935 4.2675 13.4489 3.81756 13.2919 3.48714C12.5313 2.44819 11.8034 0.630297 11.8034 0.630297L11.8047 0.70978C11.8035 0.704852 11.8023 0.699984 11.8011 0.695176Z" fill="#5E56E9"/>
</svg>
