<svg width="30" height="30" viewBox="0 0 30 30" fill="none" xmlns="http://www.w3.org/2000/svg">
<path d="M27.3958 3.16496C24.5214 -0.709777 13.3049 -0.730583 7.01673 5.55771C0.728264 11.846 -0.342893 20.9701 4.62381 25.9368C9.59051 30.9035 18.4296 30.1584 25.0183 24.5386C26.5389 23.2415 27.696 19.4306 23.6591 19.3535C20.5104 19.2934 17.0827 15.4498 26.7153 9.26602C29.5723 7.43198 28.3736 4.48293 27.3958 3.16496ZM17.3703 16.0789C17.2072 17.4752 16.3202 18.5187 15.3892 18.4094C14.4581 18.3002 13.8358 17.0799 13.9988 15.6836C14.1619 14.2874 15.0489 13.2438 15.98 13.3531C16.911 13.4623 17.5335 14.6827 17.3703 16.0789Z" fill="#FFEDB5"/>
<path d="M27.3959 3.16515C27.3202 3.06319 27.2375 2.96452 27.1506 2.86792L16.6184 13.6338C17.1751 14.0902 17.4924 15.0354 17.3704 16.0791C17.2073 17.4754 16.3203 18.5189 15.3892 18.4096C14.6058 18.3178 14.0428 17.4381 13.9808 16.3298L4.60315 25.9155C4.61014 25.9226 4.61688 25.9299 4.62396 25.9369C9.59074 30.9037 18.4298 30.1585 25.0184 24.5387C26.5391 23.2416 27.6961 19.4307 23.6593 19.3536C20.5105 19.2935 17.0829 15.4499 26.7154 9.26611C29.5724 7.43216 28.3736 4.48311 27.3959 3.16515Z" fill="#FEE187"/>
<path d="M21.6243 7.56934C22.5615 7.56934 23.3213 6.80955 23.3213 5.8723C23.3213 4.93506 22.5615 4.17527 21.6243 4.17527C20.687 4.17527 19.9272 4.93506 19.9272 5.8723C19.9272 6.80955 20.687 7.56934 21.6243 7.56934Z" fill="#D48B07"/>
<path d="M13.8468 9.12917C14.7841 9.12917 15.5438 8.36939 15.5438 7.43214C15.5438 6.49489 14.7841 5.73511 13.8468 5.73511C12.9096 5.73511 12.1498 6.49489 12.1498 7.43214C12.1498 8.36939 12.9096 9.12917 13.8468 9.12917Z" fill="#FF6262"/>
<path d="M8.04884 14.3569C8.98608 14.3569 9.74587 13.5971 9.74587 12.6598C9.74587 11.7226 8.98608 10.9628 8.04884 10.9628C7.11159 10.9628 6.35181 11.7226 6.35181 12.6598C6.35181 13.5971 7.11159 14.3569 8.04884 14.3569Z" fill="#38C6D9"/>
<path d="M6.35231 21.1448C7.28955 21.1448 8.04934 20.385 8.04934 19.4478C8.04934 18.5105 7.28955 17.7507 6.35231 17.7507C5.41506 17.7507 4.65527 18.5105 4.65527 19.4478C4.65527 20.385 5.41506 21.1448 6.35231 21.1448Z" fill="#D48B07"/>
<path d="M9.74537 26.2361C10.6826 26.2361 11.4424 25.4763 11.4424 24.539C11.4424 23.6018 10.6826 22.842 9.74537 22.842C8.80813 22.842 8.04834 23.6018 8.04834 24.539C8.04834 25.4763 8.80813 26.2361 9.74537 26.2361Z" fill="#FFC61B"/>
<path d="M16.5331 26.2361C17.4703 26.2361 18.2301 25.4763 18.2301 24.539C18.2301 23.6018 17.4703 22.842 16.5331 22.842C15.5958 22.842 14.8361 23.6018 14.8361 24.539C14.8361 25.4763 15.5958 26.2361 16.5331 26.2361Z" fill="#FF6262"/>
</svg>
