<svg width="48" height="51" viewBox="0 0 48 51" fill="none" xmlns="http://www.w3.org/2000/svg">
<path d="M10.1599 29.9103C11.0639 30.1693 12.3597 30.646 12.2239 33.2966C12.2878 34.0811 12.5278 36.2871 12.7995 38.4369C13.0238 40.1986 13.2637 41.9764 13.4317 42.9949C13.6717 44.3849 14.0476 45.3871 14.7276 46.0904C15.3997 46.8019 16.4235 47.2702 17.9356 47.6016C19.6632 47.9735 20.7512 47.6097 21.4551 47.0037C22.183 46.3812 22.5672 45.4842 22.8072 44.8782C23.0311 44.2963 23.1991 42.7446 23.2952 40.6675C23.3909 38.5823 23.407 36.0203 23.3511 33.4261C23.3505 33.3844 23.3498 33.343 23.3491 33.3018C23.3406 32.7922 23.3327 32.3194 23.503 31.8258C23.7112 31.252 24.079 30.7346 24.5348 30.4033C24.9589 30.0962 25.5667 29.8863 26.0868 29.9346C26.1838 29.9433 26.28 29.9595 26.3746 29.983C26.286 29.6279 26.1587 29.241 26.0139 28.8301C25.8323 28.3139 25.7888 28.1596 25.7344 28.0093C25.6699 27.8311 25.5902 27.6586 25.2473 26.8958C24.3829 24.9482 23.2791 22.4589 24.5108 16.6803C24.8628 15.064 25.7588 14.2153 26.8867 13.8596C27.6069 13.6337 28.4068 13.6175 29.1986 13.7385C29.9587 13.8599 30.7188 14.0946 31.3902 14.3691C31.8115 14.5463 32.2182 14.7571 32.6064 14.9994C32.3426 11.6212 30.8865 3.58786 22.8952 3.72515C16.2715 3.8303 12.5518 8.21857 10.8393 11.3622C10.4073 12.146 10.1114 12.8493 9.92732 13.3825L9.92554 13.3871C9.91037 13.4261 9.89521 13.4652 9.88748 13.5039C13.7993 13.0917 15.3672 14.4659 15.6952 16.5427C16.1591 19.4604 13.8073 23.7195 12.6155 25.8774C12.5878 25.9277 12.5608 25.9768 12.5345 26.0246C12.2944 26.4612 12.1124 26.792 12.0475 26.9523C11.5759 28.1077 10.9916 28.8516 10.5277 29.4254C10.498 29.4638 10.469 29.5012 10.4408 29.5376C10.3325 29.6771 10.2361 29.8014 10.1599 29.9103Z" fill="#5E56E9"/>
<path d="M27.2548 32.594C28.1029 33.6851 28.3672 34.0162 30.9989 34.5659C31.4705 34.6627 31.7911 34.7678 31.9828 34.8649C31.7429 35.0346 31.3747 35.1881 31.0551 35.2692C30.4065 35.4309 29.3268 35.6327 28.1832 35.4309C27.0553 35.2368 25.8471 34.6552 24.8631 33.2729C24.6627 32.9902 24.7032 32.6024 24.8069 32.2869C24.919 31.9799 25.1108 31.705 25.3347 31.5434C25.5031 31.422 25.7752 31.3169 25.9669 31.3331C26.0853 31.3407 26.1965 31.3927 26.2789 31.4788C26.6252 31.8312 26.9511 32.2035 27.2548 32.594Z" fill="#5E56E9"/>
<path d="M32.367 28.9165C32.1761 29.1252 31.973 29.3222 31.7589 29.5065C33.0421 30.8868 34.2825 32.3071 35.4783 33.7653C35.9187 34.2989 36.3344 34.6221 36.7186 34.7597C37.4225 35.0184 38.1504 34.6302 38.8623 33.8302C39.7181 32.8685 40.5266 31.3733 41.2539 29.6276C43.5739 24.0752 45.1018 16.1146 45.1978 14.1669C45.8541 0.815554 33.8303 3.78163 30.111 5.01817C34.2303 9.10783 34.0468 16.4219 34.0385 16.4784C34.0456 16.6294 34.035 16.8159 34.0216 17.0523C34.0193 17.0938 34.0168 17.1368 34.0144 17.1814C33.9424 18.3209 33.8146 20.5113 34.1506 22.9438C34.2356 23.5354 34.249 24.1352 34.1904 24.7301C34.0385 26.3545 33.3665 27.8091 32.367 28.9165Z" fill="#5E56E9"/>
<path d="M9.63176 10.692C10.9277 8.29938 13.2955 5.25281 17.0634 3.57164C15.2554 3.19971 12.3437 2.87645 9.42391 3.72546C7.36765 4.33172 5.30398 5.51959 3.61617 7.69375C2.64023 8.96243 2.8243 12.4864 4.00809 16.8101C5.03189 20.5681 6.82378 24.8596 9.27968 28.7633C9.33406 28.7005 9.38872 28.6297 9.44311 28.5592L9.44769 28.5533C9.47147 28.529 9.49556 28.4965 9.51965 28.4641C8.0959 26.1042 8.36768 23.8252 8.62371 21.6835C8.72779 20.8429 8.82383 20.0348 8.79974 19.2669C8.76906 18.495 8.67301 17.8335 8.58076 17.1982C8.57643 17.1684 8.57211 17.1387 8.56781 17.109C8.43161 16.2522 8.31147 15.4359 8.34359 14.4418C8.34359 14.4299 8.34167 14.4178 8.33975 14.4057C8.33781 14.3935 8.33587 14.3813 8.33587 14.3691C8.29572 14.1348 8.38374 13.6012 8.62371 12.9226C8.8961 12.1514 9.23335 11.4051 9.63176 10.692Z" fill="#5E56E9"/>
<path fill-rule="evenodd" clip-rule="evenodd" d="M32.6406 16.8828C32.6476 16.7453 32.6546 16.6077 32.6546 16.4703C32.6469 16.4378 31.8791 16.0824 30.8701 15.6618C30.2861 15.4275 29.6381 15.2175 28.9982 15.1205C28.3901 15.0312 27.7984 15.0312 27.2946 15.1932C26.6306 15.4032 26.0865 15.9367 25.8706 16.9711C24.7269 22.3135 25.7264 24.5601 26.5105 26.322C26.9099 27.2097 27.0293 27.5517 27.1799 27.9828C27.2168 28.0885 27.2556 28.1995 27.3008 28.3252C27.4679 28.7889 27.614 29.2319 27.7184 29.6597L27.7334 29.6591C27.9369 29.6512 28.1474 29.643 28.3506 29.6114C29.5029 29.4494 30.5508 28.8516 31.3426 27.9708C32.1849 27.0402 32.7019 25.8564 32.8145 24.6006C32.8627 24.132 32.8541 23.639 32.7824 23.1379C32.4223 20.5437 32.5588 18.2725 32.6305 17.1006C32.6332 17.028 32.6369 16.9554 32.6406 16.8828ZM26.8867 16.1227C27.3465 15.8728 28.0408 15.7779 28.551 15.8884C28.9071 15.9782 29.0591 16.1539 29.0705 16.3639C29.0819 16.5739 28.9516 16.8179 28.7428 17.0441C28.5269 17.2703 28.2227 17.4725 27.879 17.5209H27.8706C27.5189 17.5695 27.1906 17.4482 26.9506 17.2865C26.6949 17.1087 26.5266 16.8662 26.5031 16.6965C26.479 16.4784 26.6229 16.2762 26.8867 16.1227Z" fill="#5E56E9"/>
<path fill-rule="evenodd" clip-rule="evenodd" d="M14.3357 16.7614C14.1198 15.3954 12.8959 14.5223 9.72812 14.9186C9.73584 15.6216 9.83189 16.2522 9.93628 16.9065C9.93983 16.9305 9.94338 16.9546 9.94695 16.9787C10.0476 17.6602 10.1533 18.3753 10.1843 19.2261C10.2076 20.0582 10.1083 20.9137 10.0063 21.7924L10.0002 21.8448C9.79236 23.5744 9.57648 25.4009 10.4082 27.1788C10.536 26.9526 10.6562 26.694 10.776 26.4191C10.8801 26.1688 11.1043 25.7485 11.4082 25.2069C12.5278 23.1784 14.7199 19.202 14.3357 16.7614ZM11.3115 16.4946C11.1117 16.2843 10.9916 16.0338 11.0157 15.8884C11.0401 15.7186 11.1997 15.5976 11.4471 15.5408C11.663 15.484 11.9512 15.4759 12.2551 15.5164C12.5593 15.5648 12.831 15.6537 13.0231 15.7589C13.2535 15.8921 13.3465 16.0419 13.344 16.191C13.3403 16.4091 13.1318 16.626 12.8474 16.7854C12.6059 16.9168 12.3641 16.9639 12.1324 16.9377C11.8347 16.904 11.5537 16.7489 11.3115 16.4946Z" fill="#5E56E9"/>
<path d="M9.46057 31.1601C9.41729 31.1474 9.37543 31.1351 9.33589 31.1228C7.70598 32.3661 4.97976 31.853 3.17719 31.5138L3.16032 31.5106C3.59208 31.9309 4.29593 32.4077 5.13597 32.804C5.95224 33.1834 7.23207 33.4424 8.43192 33.5147C9.12001 33.5475 9.76796 33.5313 10.2559 33.4261C10.5679 33.3693 10.7757 33.3048 10.8399 33.2402C10.9196 31.5829 10.1669 31.3672 9.68664 31.2295L9.67994 31.2276C9.60563 31.2027 9.53121 31.1808 9.46057 31.1601Z" fill="#5E56E9"/>
<path fill-rule="evenodd" clip-rule="evenodd" d="M10.0524 36.889C10.057 36.9279 10.0609 36.9612 10.0638 36.9904C10.1917 42.2111 11.0237 45.2096 12.3276 47.0765C13.8233 49.2425 15.6875 49.8163 17.7833 50.2687C23.175 51.4326 24.3109 47.9248 24.9431 45.9529C24.9556 45.9176 24.9672 45.8839 24.9785 45.8511C25.0036 45.7785 25.0272 45.7101 25.0546 45.6377C25.3267 44.8864 25.5028 43.9406 25.6229 42.8738C25.735 41.8557 25.7906 40.8051 25.8311 39.7461C25.8401 39.5692 25.8466 39.3489 25.8535 39.1105C25.8586 38.9356 25.864 38.7509 25.8709 38.5664C25.8786 38.2594 25.8629 37.9683 25.8388 37.7018C26.4364 37.97 27.0654 38.1601 27.7107 38.2675C29.3586 38.5502 30.8389 38.2837 31.7268 38.0572C32.4705 37.8715 33.4143 37.435 33.9983 36.8771C34.0944 36.7882 34.1901 36.6833 34.2704 36.5863C34.7661 36.9985 35.2782 37.2893 35.7983 37.4753C37.7338 38.1786 39.4379 37.4431 40.9176 35.7782C41.9899 34.5822 42.9498 32.8205 43.7978 30.7918C46.2457 24.9245 47.8616 16.4628 47.9653 14.3776C48.8292 -3.06347 33.3019 1.10669 29.0705 2.56165C28.3277 2.11476 27.532 1.7645 26.7023 1.51918C25.5503 1.1719 24.2708 0.985627 22.8548 1.00996C22.1349 1.01808 21.4227 1.06675 20.7028 1.13945C20.2043 1.19393 19.708 1.26668 19.2148 1.35756C17.4868 0.85645 13.4391 -0.040611 9.37543 0.937263C6.59154 1.60811 3.74372 3.0952 1.43978 6.06128C-0.080028 8.02514 -0.0642774 12.4942 1.34373 17.6345C2.3595 21.3522 4.0714 25.5467 6.39944 29.4501C5.87935 29.3209 5.05537 29.1434 3.75144 28.8685C2.73567 28.6582 1.94349 28.7309 1.36751 29.0139C0.36779 29.4987 -0.0642775 30.2988 0.00768227 31.3415C0.0398017 31.8751 0.255681 32.4005 0.607759 32.9013C1.19178 33.7014 2.46358 34.7117 3.97566 35.4228C4.71163 35.7623 5.66348 36.029 6.64744 36.1988C7.63944 36.3682 8.67158 36.4409 9.55949 36.4007H9.64752L9.99156 36.3682C9.99959 36.449 10.0076 36.5298 10.0237 36.6188C10.034 36.7325 10.0443 36.8197 10.0524 36.889ZM3.48028 30.153C7.10421 30.9128 8.18423 30.436 8.50418 30.1287C5.7762 25.9423 3.79221 21.2548 2.68038 17.1808C1.38449 12.4449 1.28041 8.45227 2.52843 6.836C4.4244 4.39537 6.73638 3.0618 9.04002 2.39095C12.5278 1.37283 15.9676 1.87362 17.8475 2.31825C17.8818 2.32596 17.9142 2.33319 17.9451 2.34007C18.044 2.36213 18.1264 2.38051 18.1996 2.39906C18.2398 2.41529 18.9516 2.61748 19.4557 2.75477C20.5036 2.49579 21.6475 2.34227 22.8714 2.32636C25.399 2.28611 27.3512 2.93262 28.8632 3.97508C31.4069 3.02154 47.398 -2.32057 46.5823 14.2312C46.478 16.2438 44.9103 24.463 42.5263 30.1689C41.7345 32.0598 40.8543 33.6845 39.8947 34.7675C38.7909 35.9959 37.5824 36.5535 36.2628 36.0768C35.6392 35.8505 35.0147 35.3978 34.4153 34.6624C32.7268 32.6096 31.1833 30.9206 30.6073 30.3062C29.9645 30.6559 29.2657 30.8884 28.543 30.993C28.3176 31.0245 28.0907 31.0435 27.8632 31.0498C27.8632 31.0822 27.8632 31.1144 27.8555 31.1468C28.0243 31.3354 28.1871 31.5295 28.3435 31.7287C28.9513 32.5128 29.1431 32.7553 31.2713 33.1996C32.2308 33.4018 32.8068 33.6683 33.1188 33.9675C33.4467 34.2745 33.5505 34.6218 33.503 34.9778C33.4548 35.2848 33.2948 35.551 33.0548 35.7775C32.6469 36.1654 31.9507 36.4808 31.3905 36.6262C30.6227 36.8203 29.3426 37.0546 27.9432 36.8125C26.887 36.6262 25.7755 36.1738 24.7674 35.2524C24.7832 37.2247 24.751 39.1239 24.6794 40.7321C24.5756 42.9387 24.3832 44.6601 24.0873 45.3953C23.7912 46.1388 23.3273 47.2462 22.3514 48.0786C21.3597 48.9195 19.8874 49.4528 17.6477 48.9679C15.8558 48.5798 14.6161 47.9897 13.7279 47.0605C12.8397 46.1313 12.3601 44.9026 12.0719 43.2298C11.9042 42.2438 11.6562 40.4335 11.432 38.6069C11.2482 37.152 11.0799 35.7136 10.9681 34.6873C10.8319 34.7276 10.68 34.7678 10.528 34.8003C9.91219 34.9213 9.15213 34.9538 8.36026 34.9135C7.00816 34.8327 5.5282 34.5254 4.56029 34.073C3.25637 33.4586 2.19272 32.6342 1.72854 31.9877C1.52841 31.7044 1.40858 31.4298 1.39252 31.163C1.3604 30.7268 1.54447 30.3955 1.96047 30.1936C2.28043 30.0401 2.77643 30.0076 3.48028 30.153Z" fill="#5E56E9"/>
</svg>
