<svg width="50" height="51" viewBox="0 0 50 51" fill="none" xmlns="http://www.w3.org/2000/svg">
<path fill-rule="evenodd" clip-rule="evenodd" d="M12.9193 6.03326C12.9193 6.03326 12.1268 0.5 24.8199 0.5C38.0852 0.5 37.0601 7.17141 37.0601 7.17141V18.195C37.0601 24.8621 30.3103 24.7525 30.3103 24.7525H18.2966C11.0922 24.7525 11.3203 31.8789 11.3203 31.8789V37.8532H7.0894C7.0894 37.8532 0 38.3098 0 25.4352C0 12.561 8.12236 13.487 8.12236 13.487H25.0463V11.7659H12.9334L12.9193 6.03326ZM18.9751 4.52129C18.7106 4.4113 18.4271 4.35482 18.1409 4.35508C17.8547 4.35482 17.5712 4.4113 17.3067 4.52129C17.0422 4.63128 16.8019 4.79262 16.5995 4.99608C16.3971 5.19953 16.2366 5.44111 16.1272 5.70699C16.0177 5.97287 15.9616 6.25783 15.9618 6.54556C15.9616 6.83329 16.0177 7.11824 16.1272 7.38412C16.2366 7.65 16.3971 7.89158 16.5995 8.09503C16.8019 8.29849 17.0422 8.45983 17.3067 8.56982C17.5712 8.67981 17.8547 8.73629 18.1409 8.73603C18.4271 8.73629 18.7106 8.67981 18.9751 8.56982C19.2396 8.45983 19.4799 8.29849 19.6823 8.09503C19.8847 7.89158 20.0452 7.65 20.1546 7.38412C20.2641 7.11824 20.3203 6.83329 20.32 6.54556C20.3203 6.25783 20.2641 5.97287 20.1546 5.70699C20.0452 5.44111 19.8847 5.19953 19.6823 4.99608C19.4799 4.79262 19.2396 4.63128 18.9751 4.52129Z" fill="#5E56E9"/>
<path fill-rule="evenodd" clip-rule="evenodd" d="M37.0809 44.9667C37.0809 44.9667 37.8734 50.5 25.1803 50.5C11.9152 50.5 12.9399 43.8288 12.9399 43.8288V32.8049C12.9399 26.1377 19.6897 26.2473 19.6897 26.2473H31.7034C38.9078 26.2473 38.6797 19.1208 38.6797 19.1208V13.1467H42.9106C42.9106 13.1467 50 12.6901 50 25.5645C50 38.4392 41.8776 37.5132 41.8776 37.5132H24.9537V39.2343H37.0668L37.0809 44.9667ZM31.0251 46.4791C31.2896 46.5891 31.5731 46.6456 31.8593 46.6453C32.1455 46.6456 32.429 46.5889 32.6935 46.4789C32.958 46.3689 33.1983 46.2076 33.4007 46.0041C33.6031 45.8006 33.7636 45.5591 33.873 45.2932C33.9825 45.0273 34.0386 44.7424 34.0384 44.4546C34.0386 44.1669 33.9825 43.8819 33.873 43.6161C33.7636 43.3502 33.6031 43.1086 33.4007 42.9051C33.1983 42.7017 32.958 42.5403 32.6935 42.4304C32.429 42.3204 32.1455 42.2639 31.8593 42.2641C31.573 42.2639 31.2895 42.3204 31.025 42.4304C30.7605 42.5404 30.5202 42.7017 30.3178 42.9052C30.1154 43.1087 29.9549 43.3503 29.8455 43.6162C29.7361 43.8821 29.6799 44.1671 29.6802 44.4548C29.6799 44.7426 29.7361 45.0275 29.8455 45.2934C29.955 45.5593 30.1155 45.8008 30.3179 46.0043C30.5203 46.2078 30.7606 46.3691 31.0251 46.4791Z" fill="#5E56E9"/>
</svg>
