<svg width="57" height="50" viewBox="0 0 57 50" fill="none" xmlns="http://www.w3.org/2000/svg">
<path d="M43.3429 30.9379C43.071 31.0273 42.792 31.1137 42.5076 31.1974C41.8781 29.2186 41.0285 27.1144 39.9892 24.9406C40.9812 22.8183 41.7978 20.7411 42.4096 18.7751C42.9183 18.9215 43.4122 19.0756 43.888 19.2384C48.4903 20.8115 51.2975 23.1378 51.2975 24.9301C51.2975 26.8394 48.2654 29.3181 43.3429 30.9379Z" fill="#5E56E9"/>
<path d="M41.3003 34.9573C41.798 37.4539 41.8691 39.7111 41.5394 41.4757C41.2431 43.0612 40.6475 44.1183 39.9111 44.5416C38.3437 45.4426 34.9918 44.2715 31.3774 41.1826C30.9629 40.8285 30.5454 40.4503 30.1268 40.0503C31.5281 38.5282 32.9286 36.7586 34.2954 34.7936C36.6998 34.5818 38.9712 34.2354 41.0312 33.7626C41.1324 34.1691 41.2226 34.5676 41.3003 34.9573Z" fill="#5E56E9"/>
<path d="M20.644 44.386C19.1128 44.923 17.8932 44.9383 17.1561 44.5163C15.5872 43.6179 14.9353 40.1491 15.8247 35.4967C15.9305 34.9469 16.0516 34.4001 16.1879 33.857C18.2249 34.3044 20.4798 34.6264 22.8899 34.8205C24.2657 36.7433 25.7067 38.5107 27.1589 40.0584C26.8503 40.3549 26.5344 40.6438 26.2114 40.9249C24.2818 42.6 22.348 43.7882 20.644 44.386Z" fill="#5E56E9"/>
<path d="M13.4703 30.9261C11.0452 30.103 9.04254 29.0333 7.66978 27.8661C6.43634 26.8169 5.81346 25.7754 5.81346 24.9301C5.81346 23.1319 8.51342 20.838 13.0164 19.2789C13.5816 19.084 14.1524 18.9057 14.7282 18.744C15.3506 20.7543 16.1669 22.8561 17.1521 24.9815C16.1542 27.1386 15.3262 29.2739 14.698 31.3077C14.2857 31.1905 13.8763 31.0633 13.4703 30.9261Z" fill="#5E56E9"/>
<path d="M15.8751 14.6706C14.9403 9.92689 15.561 6.34858 17.1231 5.45068C18.787 4.49419 22.466 5.8581 26.3437 9.27728C26.5915 9.49586 26.8405 9.72471 27.0898 9.96142C25.6451 11.5022 24.2173 13.2562 22.8534 15.1679C20.5144 15.3832 18.2753 15.729 16.2169 16.1921C16.0901 15.6878 15.9761 15.1807 15.8751 14.6706Z" fill="#5E56E9"/>
<path d="M37.3275 19.9311C36.8414 19.0971 36.3371 18.2736 35.8152 17.4612C37.4022 17.6601 38.9224 17.9246 40.3499 18.2483C39.9214 19.6124 39.3872 21.0388 38.7582 22.5011C38.2986 21.6351 37.8216 20.7782 37.3275 19.9311Z" fill="#5E56E9"/>
<path d="M28.5792 11.4692C29.5591 12.5233 30.5406 13.7006 31.5059 14.9777C29.5477 14.8858 27.5862 14.8854 25.6279 14.9764C26.5942 13.7111 27.584 12.5356 28.5792 11.4692Z" fill="#5E56E9"/>
<path d="M19.7748 19.9455C19.2869 20.7859 18.8189 21.6375 18.371 22.4996C17.7523 21.0423 17.223 19.6096 16.7907 18.226C18.2097 17.9106 19.7229 17.6529 21.2994 17.4573C20.7717 18.2747 20.2633 19.1044 19.7748 19.9455Z" fill="#5E56E9"/>
<path d="M21.3448 32.5536C19.7161 32.3731 18.18 32.1285 16.7614 31.8218C17.2005 30.4138 17.7415 28.9502 18.3734 27.4617C18.8232 28.3244 19.2933 29.1765 19.7834 30.0173C20.2835 30.8749 20.8041 31.7206 21.3448 32.5536Z" fill="#5E56E9"/>
<path d="M28.638 38.5402C27.631 37.4611 26.6267 36.2677 25.6458 34.984C26.5979 35.0211 27.5688 35.0399 28.5555 35.0399C29.5692 35.0399 30.5714 35.0174 31.5576 34.9737C30.5892 36.2808 29.6113 37.476 28.638 38.5402Z" fill="#5E56E9"/>
<path d="M38.7784 27.3858C39.4431 28.8905 40.0035 30.3462 40.4486 31.7305C39.0065 32.0572 37.4497 32.3204 35.8093 32.5158C36.335 31.6882 36.844 30.8503 37.3361 30.0026C37.8364 29.1411 38.3173 28.2686 38.7784 27.3858Z" fill="#5E56E9"/>
<path fill-rule="evenodd" clip-rule="evenodd" d="M35.4957 28.9487C34.7423 30.2483 33.9466 31.5233 33.1098 32.7715C31.6342 32.8762 30.1094 32.9302 28.5555 32.9302C27.0079 32.9302 25.5025 32.8824 24.0527 32.789C23.1942 31.5437 22.3834 30.2665 21.6221 28.9602C20.8644 27.6609 20.1566 26.3335 19.5004 24.9809C20.155 23.6278 20.8606 22.2997 21.6157 20.9993C22.3706 19.6986 23.175 18.4273 24.0271 17.1873C25.5062 17.0763 27.0227 17.0181 28.5557 17.0181C30.0955 17.0181 31.614 17.0767 33.0926 17.1886C33.9361 18.4267 34.7353 19.694 35.4888 20.9881C36.2466 22.2856 36.9616 23.6072 37.6328 24.9509C36.9685 26.3083 36.2555 27.6417 35.4957 28.9487ZM32.9965 24.9302C32.9965 22.4946 31.0083 20.52 28.5555 20.52C26.103 20.52 24.1146 22.4946 24.1146 24.9302C24.1146 27.366 26.103 29.3406 28.5555 29.3406C31.0083 29.3406 32.9965 27.366 32.9965 24.9302Z" fill="#5E56E9"/>
<path d="M39.8785 5.38794C41.5438 6.34181 42.1915 10.1881 41.1452 15.2322C41.0766 15.5607 41.002 15.8881 40.9215 16.214C38.8583 15.7412 36.6177 15.3893 34.2719 15.1707C32.9053 13.2383 31.4894 11.4812 30.068 9.96033C30.4405 9.60373 30.8218 9.25638 31.2116 8.9186C34.8833 5.74532 38.3149 4.49244 39.8785 5.38794Z" fill="#5E56E9"/>
<path fill-rule="evenodd" clip-rule="evenodd" d="M11.1403 35.2407C4.62973 33.0307 0.5 29.1101 0.5 24.9101C0.5 20.8243 4.84939 17.1948 11.1403 15.0167C9.83597 8.3967 10.8561 3.06235 14.4314 1.00707C18.1395 -1.12448 23.2513 0.310473 28.5821 5.01073C33.706 0.582381 38.8689 -1.20382 42.4475 0.845547C46.1595 2.9712 47.3782 8.08304 45.9398 15.0628C52.3628 17.2586 56.5 20.8077 56.5 24.9101C56.5 29.1654 52.7068 32.5085 45.9255 34.7349C47.2615 41.4378 46.1485 47.032 42.4882 49.1362C38.927 51.1834 33.8236 49.4851 28.7738 45.1695C23.5933 49.6667 18.1353 51.1191 14.4717 49.0208C10.9074 46.9795 9.84016 41.7405 11.1403 35.2407ZM42.9788 16.7423C43.5166 16.8959 44.0504 17.0629 44.5798 17.2433C49.9511 19.0795 53.4221 21.956 53.4221 24.9301C53.4221 28.0319 49.7127 31.0647 44.0112 32.9405C43.7099 33.0397 43.4011 33.135 43.0864 33.2273C43.1986 33.6758 43.2988 34.1162 43.3846 34.5475C44.5102 40.1935 43.6435 44.8341 40.9758 46.3676C38.393 47.8524 34.2185 46.3938 29.9917 42.7819C29.5323 42.3883 29.084 41.9821 28.6474 41.5637C28.3007 41.8966 27.9545 42.2142 27.6096 42.5137C23.2459 46.3016 18.7646 47.8731 16.0946 46.3442C13.5095 44.8634 12.6971 40.5436 13.7373 35.1033C13.851 34.5121 13.9813 33.9241 14.128 33.34C13.6763 33.212 13.2279 33.0728 12.7832 32.9226C7.29873 31.0612 3.68908 27.9911 3.68908 24.9301C3.68908 21.9667 7.05177 19.1095 12.317 17.2865C12.9056 17.0828 13.5207 16.8914 14.1577 16.7117C14.0213 16.1696 13.8987 15.6241 13.7901 15.0759C12.6991 9.53935 13.4668 5.11472 16.0587 3.62469C18.7618 2.07083 23.2635 3.73944 27.7546 7.6996C28.034 7.94647 28.3087 8.19845 28.5787 8.45543C28.9818 8.06897 29.3947 7.69268 29.817 7.32692C34.1023 3.6236 38.3454 2.07433 40.9397 3.56021C43.6457 5.10947 44.438 9.81585 43.2261 15.6579C43.1504 16.0209 43.0679 16.3824 42.9788 16.7423Z" fill="#5E56E9"/>
</svg>
