<svg width="50" height="51" viewBox="0 0 50 51" fill="none" xmlns="http://www.w3.org/2000/svg">
<path fill-rule="evenodd" clip-rule="evenodd" d="M0.000214738 14.2466C0.00668117 13.7276 0.643784 13.2384 1.91897 12.712L2.62572 12.4202C6.49445 10.8225 19.3647 5.50767 22.2422 4.4194C25.3336 3.25028 26.4061 3.20828 29.0369 4.22424C30.3569 4.73395 34.4732 6.43882 38.5759 8.1381C42.6505 9.82575 46.7122 11.508 48.0076 12.0083C49.3286 12.5181 50.0044 12.9826 50 13.5083M36.1905 10.7905L42.9944 13.6245L36.1963 16.4558L35.4583 16.7602L28.6631 13.9291L36.1905 10.7905ZM31.1099 10.1232L26.8111 10.5936L25.8488 13.0343L24.2945 10.3107L19.3306 9.84051L23.0345 8.43258L21.9232 6.27138L25.391 7.70092L28.6601 6.57277L27.7765 8.80746L31.1099 10.1232ZM14.4691 11.4798C17.8627 11.4798 20.6136 12.6039 20.6136 13.9902C20.6136 15.3769 17.8627 16.5007 14.4691 16.5007C11.0756 16.5007 8.32458 15.3767 8.32458 13.9902C8.32458 12.6039 11.0756 11.4798 14.4691 11.4798Z" fill="#5E56E9"/>
<path fill-rule="evenodd" clip-rule="evenodd" d="M0.000214738 14.2466L0 19.5744C0 20.1059 0.696484 20.6686 2.0207 21.3362C3.38892 22.0252 7.97244 24.0285 12.4061 25.9662C16.5589 27.7813 20.5805 29.5389 21.7049 30.1051C24.0297 31.2765 25.6644 31.2924 28.6072 29.6755C30.1161 28.846 34.4855 26.8668 38.7449 24.9374C42.7925 23.1039 46.7409 21.3154 48.041 20.6012C49.3992 19.855 49.9992 19.2773 49.9988 18.7513L50 13.5083M25.5921 21.9643L17.5693 18.4569L29.0654 16.5969L25.5921 21.9643Z" fill="#5E56E9"/>
<path d="M48.04 24.2447C46.7396 24.9591 42.7897 26.7482 38.7411 28.582C34.4829 30.5108 30.1153 32.4891 28.6068 33.3183C25.6642 34.9352 24.0294 34.9193 21.7048 33.7479C20.5811 33.1821 16.5642 31.4265 12.4142 29.6127L12.4132 29.6123L12.4121 29.6118C7.97675 27.6732 3.38996 25.6685 2.02124 24.9792C0.676707 24.3019 0.000168167 23.7317 0 23.1939V28.5133C0 29.0455 0.696484 29.6079 2.0207 30.2749C3.39008 30.9648 7.98018 32.971 12.4173 34.9103C16.5663 36.7236 20.5815 38.4785 21.7049 39.0443C24.0297 40.2156 25.6644 40.2313 28.6072 38.6146C30.1156 37.7854 34.4822 35.8075 38.7401 33.8788C42.7894 32.0447 46.7403 30.2551 48.041 29.5404C49.3992 28.7943 49.9992 28.2166 49.9988 27.6902L50 22.4379C50.0036 22.9497 49.361 23.519 48.04 24.2447Z" fill="#5E56E9"/>
<path d="M48.04 32.8643C46.7394 33.5786 42.7885 35.3681 38.7393 37.2022L38.7386 37.2025C34.4811 39.131 30.115 41.1086 28.6068 41.9373C25.6642 43.5548 24.0294 43.5389 21.7048 42.3676C20.5806 41.8015 16.5604 40.0444 12.4083 38.2297C7.97415 36.2916 3.38957 34.2878 2.02124 33.5988C0.676707 32.9213 0.000168167 32.3511 0 31.8133V37.132C0 37.6639 0.696484 38.2272 2.0207 38.8942C3.38856 39.5834 7.97008 41.5857 12.4027 43.5229L12.404 43.5235C16.5575 45.3388 20.5804 47.0969 21.7049 47.6636C24.0297 48.835 25.6644 48.8506 28.6072 47.2333C30.1151 46.4047 34.4793 44.4279 38.7358 42.4999L38.7367 42.4996C42.7871 40.6649 46.74 38.8745 48.041 38.1597C49.3992 37.4136 49.9992 36.8359 49.9988 36.3093L50 31.0576C50.0036 31.5694 49.361 32.1386 48.04 32.8643Z" fill="#5E56E9"/>
</svg>
