<svg width="30" height="30" viewBox="0 0 30 30" fill="none" xmlns="http://www.w3.org/2000/svg">
<path d="M25.5882 12.353H22.0588V24.7059H25.5882V12.353Z" fill="#5A8BB0"/>
<path d="M7.94114 12.353H4.41174V24.7059H7.94114V12.353Z" fill="#93C7EF"/>
<path d="M10.147 20.2941V25.1471C10.147 27.8274 12.3198 30 14.9999 30C17.6801 30 19.8529 27.8274 19.8529 25.147V20.2941H10.147V20.2941Z" fill="#93C7EF"/>
<path d="M15 29.9999C17.6801 29.9999 19.853 27.8273 19.853 25.1469V20.2939H15" fill="#5A8BB0"/>
<path d="M23.8236 26.4706V8.82351C23.8236 3.95039 19.8733 0 15 0C10.1268 0 6.17651 3.95039 6.17651 8.82351V26.4705H23.8236V26.4706Z" fill="#CCE9F9"/>
<path d="M23.8235 26.4706V8.82351C23.8235 3.95039 19.8732 0 15 0C15 6.70588 15 26.4706 15 26.4706H23.8235Z" fill="#93C7EF"/>
<path d="M19.4118 7.05885H10.5883V9.70588H19.4118V7.05885Z" fill="#3C5D76"/>
<path d="M12.353 12.353C12.353 13.8148 13.5383 15 15.0001 15C16.4619 15 17.6471 13.8148 17.6471 12.353H12.353Z" fill="#3C5D76"/>
<path d="M19.4118 7.05885H15V9.70588H19.4118V7.05885Z" fill="#1E2E3B"/>
<path d="M15 12.353C15 13.8148 15 14.2941 15 15C16.4618 15 17.647 13.8148 17.647 12.353H15Z" fill="#1E2E3B"/>
<path d="M9.70584 22.0589C10.4368 22.0589 11.0294 21.4663 11.0294 20.7354C11.0294 20.0044 10.4368 19.4119 9.70584 19.4119C8.97488 19.4119 8.38232 20.0044 8.38232 20.7354C8.38232 21.4663 8.97488 22.0589 9.70584 22.0589Z" fill="#3C5D76"/>
<path d="M15 22.0589C15.731 22.0589 16.3235 21.4663 16.3235 20.7354C16.3235 20.0044 15.731 19.4119 15 19.4119C14.2691 19.4119 13.6765 20.0044 13.6765 20.7354C13.6765 21.4663 14.2691 22.0589 15 22.0589Z" fill="#1E2E3B"/>
<path d="M20.2941 22.0589C21.0251 22.0589 21.6176 21.4663 21.6176 20.7354C21.6176 20.0044 21.0251 19.4119 20.2941 19.4119C19.5631 19.4119 18.9706 20.0044 18.9706 20.7354C18.9706 21.4663 19.5631 22.0589 20.2941 22.0589Z" fill="#1E2E3B"/>
</svg>
