<svg width="100" height="100" viewBox="0 0 100 100" fill="none" xmlns="http://www.w3.org/2000/svg">
<path d="M81.5457 34.0694C81.5457 61.8297 66.5615 91.3249 50 91.3249C33.4384 91.3249 18.4542 61.9874 18.4542 34.0694C18.4542 6.15142 33.5962 0 50 0C66.4037 0 81.5457 6.30915 81.5457 34.0694Z" fill="#0B7F9E"/>
<path d="M50 0C66.4037 0 81.5457 6.30915 81.5457 34.0694C81.5457 61.8297 66.5615 91.3249 50 91.3249C33.4384 91.3249 18.4542 61.9874 18.4542 34.0694" fill="#0B6382"/>
<path d="M50 0C66.4038 0 81.5457 6.30915 81.5457 34.0694C81.5457 61.8297 66.5615 91.3249 50 91.3249" fill="#00233F"/>
<path d="M42.5867 15.7728C42.5867 18.4542 40.3785 22.7129 37.5394 22.7129C34.858 22.7129 32.4921 18.612 32.4921 15.7728C32.4921 13.0915 34.7003 10.7255 37.5394 10.7255C40.2208 10.7255 42.5867 12.9337 42.5867 15.7728Z" fill="#022728"/>
<path d="M37.5394 20.8202C40.3269 20.8202 42.5867 18.5604 42.5867 15.7728C42.5867 12.9853 40.3269 10.7255 37.5394 10.7255C34.7518 10.7255 32.4921 12.9853 32.4921 15.7728C32.4921 18.5604 34.7518 20.8202 37.5394 20.8202Z" fill="#00FFF2"/>
<path d="M33.9116 12.1451C35.8044 10.2523 38.9589 10.2523 41.0094 12.1451C42.9022 14.0378 42.9022 17.1924 41.0094 19.2429" fill="#16D8D8"/>
<path d="M37.5394 18.612C39.1074 18.612 40.3786 17.3409 40.3786 15.7729C40.3786 14.2049 39.1074 12.9338 37.5394 12.9338C35.9714 12.9338 34.7003 14.2049 34.7003 15.7729C34.7003 17.3409 35.9714 18.612 37.5394 18.612Z" fill="#00FFF2"/>
<path d="M37.5394 18.612C35.9621 18.612 34.7003 17.3502 34.7003 15.7729C34.7003 14.1956 35.9621 12.9338 37.5394 12.9338" fill="#16D8D8"/>
<path d="M35.3312 15.2997C36.2894 15.2997 37.0662 14.5229 37.0662 13.5647C37.0662 12.6064 36.2894 11.8297 35.3312 11.8297C34.373 11.8297 33.5962 12.6064 33.5962 13.5647C33.5962 14.5229 34.373 15.2997 35.3312 15.2997Z" fill="#EBFFFD"/>
<path d="M40.3785 19.0852C40.814 19.0852 41.1671 18.7321 41.1671 18.2965C41.1671 17.861 40.814 17.5079 40.3785 17.5079C39.9429 17.5079 39.5898 17.861 39.5898 18.2965C39.5898 18.7321 39.9429 19.0852 40.3785 19.0852Z" fill="#EBFFFD"/>
<path d="M67.5078 15.7728C67.5078 18.4542 65.2996 22.7129 62.4605 22.7129C59.7791 22.7129 57.4132 18.612 57.4132 15.7728C57.4132 13.0915 59.6214 10.7255 62.4605 10.7255C65.2996 10.7255 67.5078 12.9337 67.5078 15.7728Z" fill="#0B6382"/>
<path d="M62.4605 20.8202C65.2481 20.8202 67.5078 18.5604 67.5078 15.7728C67.5078 12.9853 65.2481 10.7255 62.4605 10.7255C59.673 10.7255 57.4132 12.9853 57.4132 15.7728C57.4132 18.5604 59.673 20.8202 62.4605 20.8202Z" fill="#00FFF2"/>
<path d="M58.9905 12.1451C60.8832 10.2523 64.0378 10.2523 66.0883 12.1451C67.981 14.0378 67.981 17.1924 66.0883 19.2429" fill="#16D8D8"/>
<path d="M62.4606 18.612C64.0286 18.612 65.2997 17.3409 65.2997 15.7729C65.2997 14.2049 64.0286 12.9338 62.4606 12.9338C60.8926 12.9338 59.6215 14.2049 59.6215 15.7729C59.6215 17.3409 60.8926 18.612 62.4606 18.612Z" fill="#00FFF2"/>
<path d="M62.4606 18.612C60.8833 18.612 59.6215 17.3502 59.6215 15.7729C59.6215 14.1956 60.8833 12.9338 62.4606 12.9338" fill="#16D8D8"/>
<path d="M60.2524 15.2997C61.2106 15.2997 61.9874 14.5229 61.9874 13.5647C61.9874 12.6064 61.2106 11.8297 60.2524 11.8297C59.2941 11.8297 58.5173 12.6064 58.5173 13.5647C58.5173 14.5229 59.2941 15.2997 60.2524 15.2997Z" fill="#EBFFFD"/>
<path d="M65.2996 19.0852C65.7352 19.0852 66.0883 18.7321 66.0883 18.2965C66.0883 17.861 65.7352 17.5079 65.2996 17.5079C64.8641 17.5079 64.511 17.861 64.511 18.2965C64.511 18.7321 64.8641 19.0852 65.2996 19.0852Z" fill="#EBFFFD"/>
<path d="M50 100C61.3244 100 70.5047 98.9407 70.5047 97.6341C70.5047 96.3274 61.3244 95.2681 50 95.2681C38.6755 95.2681 29.4952 96.3274 29.4952 97.6341C29.4952 98.9407 38.6755 100 50 100Z" fill="#91C6C2"/>
<path d="M37.6971 27.918L31.0725 20.0316H18.9274C18.7697 21.6088 18.6119 23.1861 18.6119 23.1861H29.8107L37.3817 31.0726H48.4227V27.918H37.6971Z" fill="#00FFF2"/>
<path d="M18.4542 23.1861H29.8107L37.3817 31.0725H48.4227V30.1262L37.5394 29.1798L31.0725 21.6088" fill="#16D8D8"/>
<path d="M62.3028 27.918L68.9274 20.0316H81.0725C81.2303 21.6088 81.388 23.1861 81.388 23.1861H70.1893L62.6183 31.0726H51.5773V27.918H62.3028Z" fill="#00FFF2"/>
<path d="M81.5457 23.1861H70.1893L62.6183 31.0725H51.5773V30.1262L62.4605 29.1798L68.9274 21.6088" fill="#16D8D8"/>
<path d="M50 32.1766C51.7423 32.1766 53.1546 30.7643 53.1546 29.0221C53.1546 27.2798 51.7423 25.8675 50 25.8675C48.2578 25.8675 46.8455 27.2798 46.8455 29.0221C46.8455 30.7643 48.2578 32.1766 50 32.1766Z" fill="#00FFF2"/>
<path d="M53.1546 29.022C53.1546 30.757 51.735 32.1765 50 32.1765C48.265 32.1765 46.8455 30.757 46.8455 29.022" fill="#16D8D8"/>
<path d="M18.612 34.2271L18.4542 33.9117C18.4542 34.0694 18.2965 34.0694 18.2965 34.2271C18.2965 52.6814 24.6057 71.4511 34.0694 82.1767V39.5899L28.2334 34.2271H18.612Z" fill="#0B7F9E"/>
<path d="M18.612 33.123L18.4542 33.4385C18.4542 33.5962 18.2965 33.9117 18.2965 34.0694C18.2965 52.5237 24.6057 71.6088 34.0694 82.3344V38.959" fill="#00233F"/>
<path d="M81.2302 34.2271L81.388 33.9117C81.388 34.0694 81.5457 34.0694 81.5457 34.2271C81.5457 52.6814 75.2365 70.6625 65.7728 81.5457V39.5899L71.6088 34.2271H81.2302Z" fill="#0B7F9E"/>
<path d="M81.388 33.123V33.4385C81.388 33.5962 81.5457 33.9117 81.5457 34.0694C81.5457 52.5237 75.2365 71.6088 65.7728 82.3344V38.959" fill="#02405B"/>
<path d="M9.93687 68.1388C14.3795 68.1388 17.981 64.5373 17.981 60.0946C17.981 55.652 14.3795 52.0505 9.93687 52.0505C5.4942 52.0505 1.8927 55.652 1.8927 60.0946C1.8927 64.5373 5.4942 68.1388 9.93687 68.1388Z" fill="#0B6382"/>
<path d="M9.93689 52.2083C14.3533 52.2083 17.9811 55.836 17.9811 60.2524C17.9811 64.6688 14.3533 68.2966 9.93689 68.2966" fill="#00233F"/>
<path d="M9.93693 50.6309C10.9823 50.6309 11.8297 49.7835 11.8297 48.7382C11.8297 47.6929 10.9823 46.8455 9.93693 46.8455C8.8916 46.8455 8.04419 47.6929 8.04419 48.7382C8.04419 49.7835 8.8916 50.6309 9.93693 50.6309Z" fill="#00233F"/>
<path d="M10.5679 46.8454V38.959H15.2997V32.6498H18.4543" fill="#16D8D8"/>
<path d="M21.9169 41.1119C21.5732 36.7697 20.0979 33.3444 18.6216 33.4612C17.1453 33.5781 16.2271 37.1928 16.5707 41.535C16.9144 45.8771 18.3898 49.3024 19.8661 49.1856C21.3424 49.0688 22.2606 45.454 21.9169 41.1119Z" fill="#0B7F9E"/>
<path d="M19.3933 41.2396C19.1874 38.6344 18.5276 36.5614 17.9198 36.6094C17.3119 36.6575 16.986 38.8084 17.1919 41.4136C17.3979 44.0188 18.0576 46.0918 18.6655 46.0438C19.2734 45.9957 19.5992 43.8448 19.3933 41.2396Z" fill="#0B6382"/>
<path d="M25.0789 42.2712C25.4274 42.2712 25.7098 41.9887 25.7098 41.6403C25.7098 41.2918 25.4274 41.0093 25.0789 41.0093C24.7305 41.0093 24.448 41.2918 24.448 41.6403C24.448 41.9887 24.7305 42.2712 25.0789 42.2712Z" fill="#16D8D8"/>
<path d="M27.6026 41.4827C27.951 41.4827 28.2335 41.2002 28.2335 40.8517C28.2335 40.5033 27.951 40.2208 27.6026 40.2208C27.2541 40.2208 26.9717 40.5033 26.9717 40.8517C26.9717 41.2002 27.2541 41.4827 27.6026 41.4827Z" fill="#16D8D8"/>
<path d="M30.1263 40.8517C30.4747 40.8517 30.7572 40.5693 30.7572 40.2208C30.7572 39.8724 30.4747 39.5899 30.1263 39.5899C29.7778 39.5899 29.4954 39.8724 29.4954 40.2208C29.4954 40.5693 29.7778 40.8517 30.1263 40.8517Z" fill="#16D8D8"/>
<path d="M13.7224 61.8297C13.7224 62.3028 13.4069 62.6183 12.9337 62.6183H6.62458C6.15139 62.6183 5.83594 62.3028 5.83594 61.8297C5.83594 61.3565 6.15139 61.041 6.62458 61.041H12.9337C13.4069 61.041 13.7224 61.3565 13.7224 61.8297Z" fill="#00FFF2"/>
<path d="M90.0631 68.1388C94.5058 68.1388 98.1073 64.5373 98.1073 60.0946C98.1073 55.652 94.5058 52.0505 90.0631 52.0505C85.6204 52.0505 82.0189 55.652 82.0189 60.0946C82.0189 64.5373 85.6204 68.1388 90.0631 68.1388Z" fill="#0B6382"/>
<path d="M90.0631 52.2083C85.6467 52.2083 82.0189 55.836 82.0189 60.2524C82.0189 64.6688 85.6467 68.2966 90.0631 68.2966" fill="#00233F"/>
<path d="M90.0631 50.6309C91.1085 50.6309 91.9559 49.7835 91.9559 48.7382C91.9559 47.6929 91.1085 46.8455 90.0631 46.8455C89.0178 46.8455 88.1704 47.6929 88.1704 48.7382C88.1704 49.7835 89.0178 50.6309 90.0631 50.6309Z" fill="#00233F"/>
<path d="M89.4322 46.8454V38.959H84.7004V32.6498H81.5458" fill="#16D8D8"/>
<path d="M78.1688 41.1585C77.8251 45.5007 78.7433 49.1154 80.2196 49.2323C81.6959 49.3491 83.1713 45.9238 83.515 41.5817C83.8586 37.2395 82.9404 33.6248 81.4641 33.5079C79.9878 33.3911 78.5125 36.8164 78.1688 41.1585Z" fill="#0B7F9E"/>
<path d="M80.5704 41.3597C80.3645 43.9649 80.6903 46.1158 81.2982 46.1638C81.9061 46.2119 82.5658 44.1389 82.7718 41.5337C82.9777 38.9284 82.6519 36.7775 82.044 36.7295C81.4361 36.6814 80.7763 38.7544 80.5704 41.3597Z" fill="#0B6382"/>
<path d="M74.9212 42.2712C75.2697 42.2712 75.5521 41.9887 75.5521 41.6403C75.5521 41.2918 75.2697 41.0093 74.9212 41.0093C74.5728 41.0093 74.2903 41.2918 74.2903 41.6403C74.2903 41.9887 74.5728 42.2712 74.9212 42.2712Z" fill="#16D8D8"/>
<path d="M72.3975 41.4827C72.746 41.4827 73.0284 41.2002 73.0284 40.8517C73.0284 40.5033 72.746 40.2208 72.3975 40.2208C72.0491 40.2208 71.7666 40.5033 71.7666 40.8517C71.7666 41.2002 72.0491 41.4827 72.3975 41.4827Z" fill="#16D8D8"/>
<path d="M69.8738 40.8517C70.2223 40.8517 70.5048 40.5693 70.5048 40.2208C70.5048 39.8724 70.2223 39.5899 69.8738 39.5899C69.5254 39.5899 69.2429 39.8724 69.2429 40.2208C69.2429 40.5693 69.5254 40.8517 69.8738 40.8517Z" fill="#16D8D8"/>
<path d="M94.164 61.8297C94.164 61.3565 93.8486 61.041 93.3754 61.041H87.0662C86.593 61.041 86.2776 61.3565 86.2776 61.8297C86.2776 62.3028 86.593 62.6183 87.0662 62.6183H93.3754C93.8486 62.6183 94.164 62.3028 94.164 61.8297Z" fill="#00FFF2"/>
</svg>
