<svg width="50" height="51" viewBox="0 0 50 51" fill="none" xmlns="http://www.w3.org/2000/svg">
<path fill-rule="evenodd" clip-rule="evenodd" d="M0 0.5V50.5H50V0.5H0ZM10.9625 27.625V25.5875L11 25.6V23.55L19.75 23.5125C24.5625 23.5125 28.525 23.525 28.525 23.5625C28.575 23.5875 28.575 24.5 28.575 25.625V27.625H22.075V46.1251H17.4625V27.625H10.9625ZM43.3 25.2875C42.425 24.375 41.45 23.8 40.175 23.5L40.2 23.475C39.3375 23.25 37.275 23.175 36.4 23.35C33.7 23.85 31.8125 25.6 31.275 28.1C31.1 28.8125 31.1625 30.5876 31.35 31.3126C31.6 32.1501 32.1375 33.1626 32.725 33.8126C33.75 34.8876 34.85 35.5876 37.4375 36.6876C39.6875 37.6876 40.4875 38.1376 40.8875 38.6876C41.175 39.1251 41.2625 39.3876 41.2625 39.9626C41.2625 40.5876 41.0625 41.0376 40.6 41.4626C39.525 42.4376 37.35 42.5501 35.725 41.7126C35.1875 41.4126 34.2625 40.5376 33.85 39.8876L33.525 39.4501L32.1125 40.2751L30.2375 41.3626L29.7625 41.6626C29.7125 41.7501 30.6 43.0876 31.0625 43.5876C32.2375 44.8751 34.15 45.8751 36.15 46.2501C37.0875 46.4126 39.0875 46.4376 39.9625 46.2876C42.75 45.8251 44.7 44.4126 45.5 42.3251C46.2125 40.4126 45.975 37.8626 44.9125 36.2376C43.975 34.7876 42.425 33.7751 38.85 32.2376C36.9125 31.3876 36.2875 30.975 35.95 30.2875C35.8 29.9625 35.725 29.7375 35.725 29.3375C35.725 28.025 36.725 27.2375 38.225 27.3375C39.2625 27.4125 39.925 27.8125 40.575 28.7375C40.775 29.0625 40.975 29.275 41.025 29.2375C42.3375 28.425 44.5 26.9625 44.5 26.8875C44.45 26.6625 43.7625 25.7875 43.3 25.2875Z" fill="#5E56E9"/>
</svg>
