<svg width="100" height="100" viewBox="0 0 100 100" fill="none" xmlns="http://www.w3.org/2000/svg">
<path d="M50 100C77.6142 100 100 77.6142 100 50C100 22.3858 77.6142 0 50 0C22.3858 0 0 22.3858 0 50C0 77.6142 22.3858 100 50 100Z" fill="#88C5CC"/>
<path d="M50.0001 85.1596C69.6627 85.1596 85.6024 83.9029 85.6024 82.3527C85.6024 80.8026 69.6627 79.5459 50.0001 79.5459C30.3374 79.5459 14.3977 80.8026 14.3977 82.3527C14.3977 83.9029 30.3374 85.1596 50.0001 85.1596Z" fill="#3F959F"/>
<path d="M12.8871 13.1295H87.1131C89.5517 13.1295 91.547 15.1248 91.547 17.5635V63.2875H8.45349V17.5633C8.45349 15.1246 10.4484 13.1295 12.8871 13.1295Z" fill="#1E2C33"/>
<path d="M11.4637 60.2768H88.5358V17.5633C88.5358 16.7862 87.8895 16.1399 87.113 16.1399H12.8872C12.1104 16.1399 11.4643 16.7862 11.4643 17.5633V60.2768H11.4637Z" fill="#E16B5A"/>
<path d="M91.5465 63.2874V68.1364C91.5465 70.5754 89.3473 72.5704 86.659 72.5704H13.3412C10.653 72.5704 8.45374 70.5754 8.45374 68.1364V63.2874H91.5469H91.5465Z" fill="white"/>
<path d="M50 69.2615C50.843 69.2615 51.5265 68.578 51.5265 67.7349C51.5265 66.8918 50.843 66.2084 50 66.2084C49.1569 66.2084 48.4734 66.8918 48.4734 67.7349C48.4734 68.578 49.1569 69.2615 50 69.2615Z" fill="#1E2C33"/>
<path d="M59.5833 79.5455L66.6331 81.8045H33.3665L39.0545 79.5455V72.5703H59.5829V79.5455H59.5833Z" fill="#C2C2C4"/>
<path d="M39.0549 79.5455H59.5834L66.6332 81.8045V82.7772H50.0004H33.3668V81.8045L39.0549 79.5455Z" fill="#ECF0F1"/>
<path d="M39.0549 72.5701H59.5834V79.5453L39.0549 72.5701Z" fill="#919191"/>
<path d="M18 19H14V57H18V19Z" fill="#F5F5F5"/>
<path d="M16.1872 22.6424L16.701 22.5428L15.2015 21.3401L15.68 23.2017L15.9834 22.7742L16.3843 23.3977L16.588 23.2659L16.1927 22.6513L16.1872 22.6424Z" fill="#242424"/>
<path d="M17.2603 25.8917H17.1064V25.7699C17.1064 25.7001 17.051 25.647 16.9834 25.647H15.4452C15.3776 25.647 15.3223 25.7023 15.3223 25.7699V25.8917H15.2304C15.196 25.8917 15.1683 25.9183 15.1683 25.9537C15.1683 25.987 15.196 26.0157 15.2304 26.0157H15.3223V26.1387C15.3223 26.2073 15.3776 26.2605 15.4452 26.2605H16.9834C17.051 26.2605 17.1064 26.2051 17.1064 26.1387V26.0157H17.1983V26.4244L16.113 26.6005C16.0831 26.6049 16.0609 26.6293 16.0609 26.6625V26.8773H16.0299C15.9613 26.8773 15.907 26.9327 15.907 26.9992V27.7367C15.907 27.8065 15.9624 27.8596 16.0299 27.8596H16.2149C16.2824 27.8596 16.3378 27.8043 16.3378 27.7367V26.9992C16.3378 26.9305 16.2824 26.8773 16.2149 26.8773H16.1839V26.7157L17.2691 26.5385C17.299 26.534 17.3212 26.5097 17.3212 26.4776V25.9537C17.3223 25.9183 17.2946 25.8917 17.2603 25.8917Z" fill="#242424"/>
<path d="M15.9391 30.6515C15.9558 30.647 15.9713 30.6437 15.9879 30.6382C16.0444 30.6249 16.1064 30.5961 16.1706 30.5551C16.2625 30.4986 16.3544 30.4222 16.4408 30.3358C16.8063 29.9704 17.0765 29.3868 17.0433 29.3513C17.01 29.3192 16.4364 29.5772 16.061 29.9538C15.9735 30.0413 15.896 30.1343 15.8373 30.2284C15.7996 30.2904 15.773 30.3458 15.7586 30.399C15.7531 30.4178 15.7487 30.4366 15.7453 30.4554C15.3223 30.4765 15.5084 30.9184 15.2714 31.0612C15.4353 31.0612 15.7166 31.059 15.8273 30.9483C15.9358 30.8397 15.9491 30.7246 15.9391 30.6515Z" fill="#242424"/>
<path d="M74.61 45C76.0309 44.826 77.5349 43.806 78.8862 42.5788C81.9729 39.7724 84.2609 35.28 83.976 35.0221C83.6935 34.7664 78.8509 36.7526 75.6685 39.646C74.3251 40.8659 73.2074 42.2588 73 43.5357L74.61 45Z" fill="#263740"/>
<path d="M74.1418 41C73.4853 41.8873 73.0491 42.7353 73 43.4568L74.5409 45C75.2726 44.9596 76.1189 44.522 77 43.8606L74.1418 41Z" fill="#E6E6E6"/>
<path d="M74.9736 45.5718L73.2746 44C69.4473 44.1312 71.1259 47.8206 69 49C70.4682 48.9989 72.9788 48.9889 73.9708 48.0718C74.9616 47.1547 75.065 46.181 74.9736 45.5718Z" fill="#FFD464"/>
<path d="M27 27.7935C28.9729 27.081 31.1569 26.8351 33.3122 27.1096C35.4663 27.3961 37.5497 28.1887 39.4165 29.2799C43.1833 31.4624 46.1509 34.5823 48.9969 37.6068C50.3995 39.147 51.7833 40.685 53.2047 42.1572C54.6062 43.648 56.0861 45.0368 57.6688 46.2597C59.2637 47.453 61.0123 48.4465 62.9531 48.8879C64.8873 49.3632 66.9774 49.2062 69 48.654C67.1631 49.6585 64.9757 50.1635 62.7818 49.9527C60.5856 49.7332 58.4989 48.8363 56.6841 47.666C53.0245 45.3024 50.2094 42.1001 47.3711 39.0932C44.5704 36.049 41.7939 33.0191 38.4992 30.7236C36.8468 29.5983 35.0541 28.6707 33.1055 28.1646C31.1624 27.6255 29.0845 27.552 27 27.7935Z" fill="#263740"/>
</svg>
