<svg width="100" height="100" viewBox="0 0 100 100" fill="none" xmlns="http://www.w3.org/2000/svg">
<path d="M50 100C77.6142 100 100 77.6142 100 50C100 22.3858 77.6142 0 50 0C22.3858 0 0 22.3858 0 50C0 77.6142 22.3858 100 50 100Z" fill="#FAD24D"/>
<path d="M50.0001 85.1596C69.6627 85.1596 85.6024 83.9029 85.6024 82.3527C85.6024 80.8026 69.6627 79.5459 50.0001 79.5459C30.3374 79.5459 14.3977 80.8026 14.3977 82.3527C14.3977 83.9029 30.3374 85.1596 50.0001 85.1596Z" fill="#EDB937"/>
<path d="M12.8871 13.1295H87.1131C89.5517 13.1295 91.547 15.1248 91.547 17.5635V63.2875H8.45349V17.5633C8.45349 15.1246 10.4488 13.1293 12.8875 13.1293H12.8871V13.1295Z" fill="#666666"/>
<path d="M11.4637 60.2768H88.5358V17.5633C88.5358 16.7862 87.8895 16.1399 87.113 16.1399H12.8872C12.1104 16.1399 11.4643 16.7862 11.4643 17.5633V60.2768H11.4637Z" fill="white"/>
<path d="M91.5465 63.2874V68.1364C91.5465 70.5754 89.3473 72.5704 86.659 72.5704H13.3412C10.653 72.5704 8.45374 70.5754 8.45374 68.1364V63.2874H91.5469H91.5465Z" fill="white"/>
<path d="M50 69.2615C50.843 69.2615 51.5265 68.578 51.5265 67.7349C51.5265 66.8918 50.843 66.2084 50 66.2084C49.1569 66.2084 48.4734 66.8918 48.4734 67.7349C48.4734 68.578 49.1569 69.2615 50 69.2615Z" fill="#B6B6B8"/>
<path d="M59.5833 79.5455L66.6331 81.8045H33.3665L39.0545 79.5455V72.5703H59.5829V79.5455H59.5833Z" fill="#C2C2C4"/>
<path d="M39.0549 79.5455H59.5834L66.6332 81.8045V82.7772H50.0004H33.3668V81.8045L39.0549 79.5455Z" fill="#ECF0F1"/>
<path d="M39.0549 72.5701H59.5834V79.5453L39.0549 72.5701Z" fill="#919191"/>
<path d="M22.7716 19.043H14.8142V20.4133H22.7716V19.043Z" fill="#20D0C2"/>
<path d="M37.8071 19.043H23.692V20.4133H37.8071V19.043Z" fill="#FF5B62"/>
<path d="M50.5049 19.043H38.4873V20.4133H50.5049V19.043Z" fill="#FAD24D"/>
<path d="M27.3953 24.6803H23.1735V26.0506H27.3953V24.6803Z" fill="#FAD24D"/>
<path d="M35.3723 24.6803H27.8831V26.0506H35.3723V24.6803Z" fill="#FF5B62"/>
<path d="M42.1084 24.6803H35.733V26.0506H42.1084V24.6803Z" fill="#20D0C2"/>
<path d="M22.1812 27.0878H14.764V28.4581H22.1812V27.0878Z" fill="#20D0C2"/>
<path d="M36.191 27.0876H23.0371V28.458H36.191V27.0876Z" fill="#FAD24D"/>
<path d="M30.0994 29.9648H22.6823V31.3352H30.0994V29.9648Z" fill="#FF5B62"/>
<path d="M44.109 29.9648H30.9551V31.3352H44.109V29.9648Z" fill="#20D0C2"/>
<path d="M23.5029 32.7155H16.0857V34.0858H23.5029V32.7155Z" fill="#FAD24D"/>
<path d="M29.7914 32.7155H24.4834V34.0858H29.7914V32.7155Z" fill="#20D0C2"/>
<path d="M45.9455 32.7155H31.041V34.0858H45.9455V32.7155Z" fill="#FF5B62"/>
<path d="M52.3451 32.7155H47.0371V34.0858H52.3451V32.7155Z" fill="#20D0C2"/>
<path d="M34.349 35.5927H14.501V36.963H34.349V35.5927Z" fill="#20D0C2"/>
<path d="M40.5225 35.5925H35.2145V36.9628H40.5225V35.5925Z" fill="#FAD24D"/>
<path d="M48.6959 35.5925H41.2787V36.9628H48.6959V35.5925Z" fill="#FF5B62"/>
<path d="M24.059 21.6979H23.5107V23.3416H24.059V21.6979Z" fill="white"/>
<path d="M38.2813 27.0878H37.733V28.7315H38.2813V27.0878Z" fill="white"/>
<path d="M22.7716 39.6472H14.8142V41.0175H22.7716V39.6472Z" fill="#20D0C2"/>
<path d="M37.8071 39.6472H23.692V41.0175H37.8071V39.6472Z" fill="#FF5B62"/>
<path d="M50.5049 39.6472H38.4873V41.0175H50.5049V39.6472Z" fill="#FAD24D"/>
<path d="M27.3953 45.2826H23.1735V46.6529H27.3953V45.2826Z" fill="#FAD24D"/>
<path d="M35.3723 45.2826H27.8831V46.6529H35.3723V45.2826Z" fill="#FF5B62"/>
<path d="M42.1084 45.2826H35.733V46.6529H42.1084V45.2826Z" fill="#20D0C2"/>
<path d="M22.1812 47.692H14.764V49.0623H22.1812V47.692Z" fill="#20D0C2"/>
<path d="M36.191 47.692H23.0371V49.0623H36.191V47.692Z" fill="#FAD24D"/>
<path d="M24.059 42.3002H23.5107V43.9439H24.059V42.3002Z" fill="white"/>
<path d="M38.2813 47.692H37.733V49.3358H38.2813V47.692Z" fill="white"/>
<path d="M85.4639 19.043H56.6842V25.6805H85.4639V19.043Z" fill="#DCE3DB"/>
<path d="M56.6838 26.6207H70.3905V35.3809H56.6838V26.6207Z" fill="#DCE3DB"/>
<path d="M71.7574 26.6207H85.4641V35.3809H71.7574V26.6207Z" fill="#DCE3DB"/>
<path d="M56.7233 36.637H85.425V37.0612H56.7233V36.637ZM56.7233 40.6475H75.5776V41.0717H56.7233V40.6475ZM56.7233 39.3104H85.425V39.7346H56.7233V39.3104ZM56.7233 37.9739H85.425V38.3981H56.7233V37.9739Z" fill="#DCE3DB"/>
<path d="M56.65 42.1136H65.2033V50.5941H56.65V42.1136ZM76.9455 42.1136H85.4992V50.5941H76.9455V42.1136ZM66.7979 42.1136H75.3512V50.5941H66.7979V42.1136Z" fill="#DCE3DB"/>
<path d="M56.7233 51.775H85.425V52.1992H56.7233V51.775ZM56.7233 55.7856H75.5776V56.2098H56.7233V55.7856ZM56.7233 54.4487H85.425V54.8729H56.7233V54.4487ZM56.7233 53.1121H85.425V53.5363H56.7233V53.1121Z" fill="#DCE3DB"/>
</svg>
